<?xml version="1.0" standalone="no"?>
<!DOCTYPE svg PUBLIC "-//W3C//DTD SVG 1.1//EN" "http://www.w3.org/Graphics/SVG/1.1/DTD/svg11.dtd">
<svg xmlns="http://www.w3.org/2000/svg">
<metadata>Copyright (C) 2020 by original authors @ fontello.com</metadata>
<defs>
<font id="citeck" horiz-adv-x="1000" >
<font-face font-family="citeck" font-weight="400" font-stretch="normal" units-per-em="1000" ascent="850" descent="-150" />
<missing-glyph horiz-adv-x="1000" />
<glyph glyph-name="leftmenu-journal-tasks" unicode="&#xe800;" d="M480 850c-28 0-50-22-50-49 0-1 0-1 0-1h-80c-28 0-50-22-50-50v-50c0-28 22-50 50-50h300c28 0 50 22 50 50v50c0 28-22 50-50 50h-79c-1 0-1 0-1 1 0 27-22 49-49 49h-41z m-280-100h-50c-28 0-50-22-50-50v-800c0-28 22-50 50-50h700c28 0 50 22 50 50v800c0 28-22 50-50 50h-50v-50c0-83-67-150-150-150h-300c-83 0-150 67-150 150v50z m183-417c0-66 51-116 117-116 67 0 117 50 117 116 0 67-50 117-117 117-66 0-117-50-117-117z m267-335c28 0 50 23 50 50v2c0 33-75 98-167 98h-66c-92 0-167-65-167-98v-2c0-27 22-50 50-50h300z" horiz-adv-x="1000" />

<glyph glyph-name="leftmenu-statistic" unicode="&#xe801;" d="M500 850c-55 0-100-45-100-100v-500c0-55 45-100 100-100 55 0 100 45 100 100v500c0 55-45 100-100 100z m-300-250c-55 0-100-45-100-100v-250c0-55 45-100 100-100 55 0 100 45 100 100v250c0 55-45 100-100 100z m500 50c0 55 45 100 100 100 55 0 100-45 100-100v-400c0-55-45-100-100-100-55 0-100 45-100 100v400z m300-700c0 55-45 100-100 100h-800c-55 0-100-45-100-100 0-55 45-100 100-100h800c55 0 100 45 100 100z" horiz-adv-x="1000" />

<glyph glyph-name="leftmenu-new-task" unicode="&#xe802;" d="M946 331l-70 112c-5 9-7 20-5 30l28 131c4 20-7 40-27 46l-125 41c-10 3-18 10-23 20l-61 117c-10 19-31 27-50 19l-122-50c-9-4-20-4-30 0l-121 50c-19 8-41 0-50-19l-62-117c-5-10-13-17-23-20l-125-41c-19-6-31-26-26-46l27-131c3-10 1-21-5-30l-70-112c-11-18-7-41 9-54l104-81c8-7 14-16 15-27l18-131c3-21 20-36 41-35l131 5c10 0 21-3 28-11l98-89c15-14 38-14 53 0l97 89c8 8 18 11 28 11l132-5c20-1 38 14 40 35l18 131c2 11 7 20 15 27l104 81c16 13 20 36 9 54z" horiz-adv-x="952" />

<glyph glyph-name="leftmenu-case" unicode="&#xe803;" d="M250 650v50c0 83 67 150 150 150h200c83 0 150-67 150-150v-50h150c55 0 100-45 100-100v-100c0-28-22-50-50-50h-900c-28 0-50 22-50 50v100c0 55 45 100 100 100h150z m100 50c0 28 22 50 50 50h200c28 0 50-22 50-50 0-28-22-50-50-50h-200c-28 0-50 22-50 50z m200-450c0 28 22 50 50 50h350c28 0 50-22 50-50v-300c0-55-45-100-100-100h-800c-55 0-100 45-100 100v300c0 28 22 50 50 50h350c28 0 50-22 50-50v-50c0-28 22-50 50-50 28 0 50 22 50 50v50z" horiz-adv-x="1000" />

<glyph glyph-name="leftmenu-shared-doc" unicode="&#xe804;" d="M100 850c-55 0-100-45-100-100v-800c0-55 45-100 100-100 55 0 100 45 100 100v800c0 55-45 100-100 100z m800 0c55 0 100-45 100-100v-800c0-55-45-100-100-100h-500c-55 0-100 45-100 100v800c0 55 45 100 100 100h500z m-367-383c0-67 51-117 117-117 67 0 117 50 117 117 0 66-50 116-117 116-66 0-117-50-117-116z m267-419c28 0 50 23 50 50v2c0 92-75 148-167 148h-66c-92 0-167-56-167-148v-2c0-27 22-50 50-50h300z" horiz-adv-x="1000" />

<glyph glyph-name="leftmenu-meeting" unicode="&#xe805;" d="M500-14c276 0 500 182 500 407 0 225-224 407-500 407-276 0-500-182-500-407 0-127 72-241 184-315 9-56 10-100-57-189-12-17-1-41 20-39 43 5 104 17 147 44 75 48 104 101 104 101 33-6 67-9 102-9z m-150 514c0 28 22 50 50 50h200c28 0 50-22 50-50 0-28-22-50-50-50h-200c-28 0-50 22-50 50z m50-150c-28 0-50-22-50-50 0-28 22-50 50-50h200c28 0 50 22 50 50 0 28-22 50-50 50h-200z" horiz-adv-x="1000" />

<glyph glyph-name="leftmenu-correspondence" unicode="&#xe806;" d="M100 750c-55 0-100-45-100-100v-41c0-18 10-35 26-43l450-246c15-8 33-8 48 0l450 246c16 8 26 25 26 43v41c0 55-45 100-100 100h-800z m900-326c0 19-20 31-37 22l-434-237c-18-10-40-10-58 0l-434 237c-17 9-37-3-37-22v-374c0-55 45-100 100-100h800c55 0 100 45 100 100v374z" horiz-adv-x="1000" />

<glyph glyph-name="leftmenu-ord" unicode="&#xe807;" d="M400 349c0-55 45-100 101-100 55 0 100 45 100 100 0 56-45 100-100 100-56 0-101-44-101-100z m550 210c0 26-10 52-29 70l-192 192c-18 19-44 29-70 29h-509c-55 0-100-45-100-100v-800c0-11 2-22 5-33 14-39 51-67 95-67h700c55 0 100 45 100 100v609z m-171-161c8 0 18-6 19-15 3-22 3-45 0-68-1-9-9-15-18-15l-3 1c-27 0-51-17-62-41-10-26-4-56 17-75 4-3 5-7 6-11 0-4-1-8-4-12-14-18-31-34-49-48-6-5-16-4-22 2-18 20-50 27-74 17-19-8-33-23-39-42-2-7-3-14-3-22 1-9-6-16-14-17-6-1-12-1-18-2-5 0-10 0-15 0-12 0-23 1-35 2-9 1-15 9-15 18 2 28-14 54-40 65-25 10-57 3-75-17-6-7-16-7-23-2-17 14-33 30-47 48-6 7-5 17 2 23 20 18 27 48 16 74-10 25-35 42-61 41-9 0-19 6-20 15-3 22-3 45 0 68 1 9 8 15 17 15 30 0 55 16 66 40 11 26 4 56-17 75-3 3-5 7-6 11 0 4 1 8 4 12 14 18 31 34 49 48 7 5 16 4 22-2 18-20 50-27 75-17 25 11 42 36 41 64-1 7 3 13 10 16 1 1 3 1 4 1 23 3 46 3 68 0 9-1 15-9 15-17-2-29 14-55 40-66 13-5 27-6 40-3 14 3 26 10 35 20 6 7 16 8 23 2 10-8 20-17 29-26 6-7 12-14 18-22 6-7 5-17-1-23-21-18-28-48-17-74 10-25 34-41 62-41z" horiz-adv-x="1000" />

<glyph glyph-name="leftmenu-pass" unicode="&#xe808;" d="M0 650c0 55 45 100 100 100h800c55 0 100-45 100-100v-600c0-55-45-100-100-100h-800c-55 0-100 45-100 100v600z m150-250v200h700v-200h-700z m700-200v-100h-700v100h700z" horiz-adv-x="1000" />

<glyph glyph-name="leftmenu-contract" unicode="&#xe809;" d="M942 597c5-12 8-25 8-38v-609c0-55-45-100-100-100h-700c-44 0-81 28-95 67-1 4-2 7-3 11 0 3-1 7-1 10-1 4-1 8-1 12v800c0 55 45 100 100 100h509c26 0 52-10 70-29l192-192c4-3 7-7 10-12 3-4 6-9 8-13 1-2 2-4 3-7z m-742-47c0 28 22 50 50 50h500c28 0 50-22 50-50 0-28-22-50-50-50h-500c-28 0-50 22-50 50z m50-150c-28 0-50-22-50-50 0-28 22-50 50-50h500c28 0 50 22 50 50 0 28-22 50-50 50h-500z m-50-250c0 28 22 50 50 50h150c8 0 16-2 22-5 5-3 10-6 14-10 5-5 9-12 11-19 2-5 3-10 3-16 0-14-5-26-14-35-9-9-22-15-36-15h-150c-28 0-50 22-50 50z m500 50c-55 0-100-45-100-100 0-55 45-100 100-100 55 0 100 45 100 100 0 55-45 100-100 100z" horiz-adv-x="1000" />

<glyph glyph-name="leftmenu-personal-doc" unicode="&#xe80a;" d="M100 750c-55 0-100-45-100-100v-600c0-55 45-100 100-100h800c55 0 100 45 100 100v600c0 55-45 100-100 100h-800z m250-383c-66 0-117 50-117 116 0 67 51 117 117 117 67 0 117-50 117-117 0-66-50-116-117-116z m200-219c0-27-22-50-50-50h-300c-28 0-50 23-50 50v2c0 92 75 148 167 148h66c92 0 167-56 167-148v-2z m50 402c0 28 22 50 50 50h150c28 0 50-22 50-50 0-14-6-27-15-36-6-6-14-10-22-12-4-1-9-2-13-2h-150c-28 0-50 22-50 50z m6-175c-4-8-6-16-6-25 0-28 22-50 50-50h150c14 0 27 6 36 15 9 9 14 22 14 35 0 28-22 50-50 50h-150c-19 0-35-10-44-25z" horiz-adv-x="1000" />

<glyph glyph-name="leftmenu-section" unicode="&#xe80b;" d="M554 403c-59 0-107-49-107-110 0-60 48-109 107-109 59 0 107 49 107 109 0 61-48 110-107 110z m-454-53c0-28 22-50 50-50h50v250c0 55 45 100 100 100h600c55 0 100-45 100-100v-600c0-55-45-100-100-100h-600c-55 0-100 45-100 100v250h-50c-83 0-150 67-150 150v400c0 28 22 50 50 50 28 0 50-22 50-50l0-400z m250-57c0 114 91 207 204 207 113 0 204-93 204-207 0-41-12-81-35-114l91-97c19-19 18-50-1-68-9-9-21-14-34-14-13 0-26 6-35 15l-92 97c-30-16-63-25-98-25-113 0-204 93-204 206z" horiz-adv-x="1000" />

<glyph glyph-name="arrow" unicode="&#xe80c;" d="M618 690l-58-52c-16-14-17-39-3-55l133-154-601 0c-22 0-39-18-39-40l0-78c0-22 17-40 39-40l601 0-133-154c-14-16-13-41 3-55l58-52c16-15 41-13 55 3l267 311c13 15 13 37 0 52l-267 311c-14 16-39 18-55 3z" horiz-adv-x="1000" />

<glyph glyph-name="leftmenu-org-structure" unicode="&#xe80d;" d="M700 650c0-93-64-171-150-194v-106h200c83 0 150-67 150-150v-58c58-21 100-77 100-142 0-83-67-150-150-150-83 0-150 67-150 150 0 65 42 121 100 142v58c0 28-22 50-50 50h-200v-108c58-21 100-77 100-142 0-83-67-150-150-150-83 0-150 67-150 150 0 65 42 121 100 142v108h-200c-28 0-50-22-50-50v-58c58-21 100-77 100-142 0-83-67-150-150-150-83 0-150 67-150 150 0 65 42 121 100 142v58c0 83 67 150 150 150h200v106c-86 23-150 101-150 194 0 111 90 200 200 200 111 0 200-89 200-200z" horiz-adv-x="1000" />

<glyph glyph-name="leftmenu-run-process" unicode="&#xe80e;" d="M761 834c21 21 57 21 78 0l145-145c21-21 21-57 0-78l-134-134v-233c86-22 150-101 150-194 0-110-89-200-200-200-110 0-200 90-200 200 0 93 64 172 150 194v233l-123 123h-233c-18-70-74-126-144-144v-206h100c28 0 50-22 50-50v-300c0-28-22-50-50-50h-300c-28 0-50 22-50 50v300c0 28 22 50 50 50h100v206c-86 23-150 101-150 194 0 110 90 200 200 200 93 0 172-64 194-150h233l134 134z m39-684c-55 0-100-45-100-100 0-55 45-100 100-100 55 0 100 45 100 100 0 55-45 100-100 100z m-600 600c55 0 100-45 100-100 0-55-45-100-100-100-55 0-100 45-100 100 0 55 45 100 100 100z" horiz-adv-x="1000" />

<glyph glyph-name="leftmenu-completed-process" unicode="&#xe80f;" d="M394 700c-22 86-101 150-194 150-110 0-200-90-200-200 0-93 64-171 150-194v-106h-50c-55 0-100-45-100-100v-300c0-55 45-100 100-100h800c55 0 100 45 100 100v300c0 55-45 100-100 100h-650v106c70 18 126 74 144 144h233l134-134c21-21 57-21 78 0l145 145c21 21 21 57 0 78l-145 145c-21 21-57 21-78 0l-134-134h-233z m-194-150c55 0 100 45 100 100 0 55-45 100-100 100-55 0-100-45-100-100 0-55 45-100 100-100z m490-385l-190-190c-19-20-51-20-71 0l-114 110c-20 20-20 52 0 71 19 20 51 20 70 0l80-75 154 154c20 20 51 20 71 0 19-19 19-51 0-70z" horiz-adv-x="1000" />

<glyph glyph-name="leftmenu-content" unicode="&#xe810;" d="M100 600c0 28 22 50 50 50h700c28 0 50-22 50-50 0-28-22-50-50-50h-700c-28 0-50 22-50 50z m100 200c0 28 22 50 50 50h500c28 0 50-22 50-50 0-28-22-50-50-50h-500c-28 0-50 22-50 50z m-100-350c-55 0-100-45-100-100v-400c0-55 45-100 100-100h800c55 0 100 45 100 100v400c0 55-45 100-100 100h-800z m300-200c0 28-22 50-50 50-28 0-50-22-50-50v-100c0-28 22-50 50-50h300c28 0 50 22 50 50v100c0 28-22 50-50 50-28 0-50-22-50-50v-50h-200v50z" horiz-adv-x="1000" />

<glyph glyph-name="plus" unicode="&#xe811;" d="M580 670c0 44-36 80-80 80-44 0-80-36-80-80v-240h-240c-44 0-80-36-80-80 0-44 36-80 80-80h240v-240c0-44 36-80 80-80 44 0 80 36 80 80v240h240c44 0 80 36 80 80 0 44-36 80-80 80h-240v240z" horiz-adv-x="1000" />

<glyph glyph-name="leftmenu-files" unicode="&#xe812;" d="M941 600c6-13 9-27 9-41v-359c0-55-45-100-100-100-28 0-50 22-50 50v159c0 53-21 104-59 141l-191 191c-37 38-88 59-141 59h-109c-28 0-50 22-50 50 0 55 45 100 100 100h309c26 0 52-10 70-29l192-192c8-8 15-18 20-29z m-246-259c3-10 5-21 5-32v-359c0-55-45-100-100-100h-500c-44 0-81 28-95 67-3 11-5 22-5 33v550c0 55 45 100 100 100h309c26 0 52-10 70-29l192-192c11-11 19-24 24-38z" horiz-adv-x="1000" />

<glyph glyph-name="leftmenu-data-list" unicode="&#xe813;" d="M100 750c0 55 51 100 114 100h572c63 0 114-45 114-100v-550c0-28-22-50-50-50v-200c28 0 50-22 50-50 0-28-22-50-50-50h-550c-110 0-200 89-200 200v700z m650-600h-450c-55 0-100-45-100-100 0-55 45-100 100-100h450v50h-450c-28 0-50 22-50 50 0 28 22 50 50 50l450 0v50z m-450 400c0 28 22 50 50 50h300c28 0 50-22 50-50 0-28-22-50-50-50h-300c-28 0-50 22-50 50z" horiz-adv-x="1000" />

<glyph glyph-name="leftmenu-repository" unicode="&#xe814;" d="M500 850c-224 0-450-75-450-219v-562c0-144 226-219 450-219 224 0 450 75 450 219v562c0 144-226 219-450 219z m0-875c-211 0-321 70-321 94v124c85-41 203-62 321-62 118 0 236 21 321 62v-124c0-24-110-94-321-94z m0 281c-211 0-321 70-321 94v124c85-40 203-61 321-61 118 0 236 21 321 61v-124c0-24-110-94-321-94z" horiz-adv-x="1000" />

<glyph glyph-name="leftmenu-app" unicode="&#xe815;" d="M750 350c0-138-112-250-250-250-138 0-250 112-250 250 0 138 112 250 250 250 138 0 250-112 250-250z m-650 500c-55 0-100-45-100-100v-800c0-55 45-100 100-100h800c55 0 100 45 100 100v800c0 55-45 100-100 100h-800z m750-500c0-193-157-350-350-350-193 0-350 157-350 350 0 193 157 350 350 350 193 0 350-157 350-350z" horiz-adv-x="1000" />

<glyph glyph-name="leftmenu-bpmn-editor" unicode="&#xe816;" d="M200 800c93 0 172-64 194-150h233l134 134c21 21 57 21 78 0l145-145c21-21 21-57 0-78l-145-145c-21-21-57-21-78 0l-134 134h-233c-18-70-74-126-144-144 0-2 0-4 0-6v-150c0-28-22-50-50-50-28 0-50 22-50 50v150l0 3c0 1 0 2 0 3-86 22-150 101-150 194 0 110 90 200 200 200z m0-300c55 0 100 45 100 100 0 55-45 100-100 100-55 0-100-45-100-100 0-55 45-100 100-100z m731-383c25 11 36 41 25 66l-60 137c-12 26-41 37-66 26l-32-14c-25-11-37-41-25-66l60-137c11-26 41-37 66-26l32 14z m-659-18c-7-3-14-8-19-15l-93-123c-23-32-3-76 35-80l154-14c8-1 17 0 25 4l365 161c18 8 26 29 18 47l-66 151c-12 25-41 36-66 25l-353-156z" horiz-adv-x="1000" />

<glyph glyph-name="leftmenu-groups" unicode="&#xe817;" d="M400 350c-55 0-100 45-100 100h-200v-300h200c0 55 45 100 100 100h500c55 0 100-45 100-100v-100c0-55-45-100-100-100h-500c-55 0-100 45-100 100h-200c-55 0-100 45-100 100v550c0 28 22 50 50 50 28 0 50-22 50-50v-150h200c0 55 45 100 100 100h500c55 0 100-45 100-100v-100c0-55-45-100-100-100h-500z" horiz-adv-x="1000" />

<glyph glyph-name="leftmenu-users" unicode="&#xe818;" d="M139 568c0-113 84-198 194-198 111 0 195 85 195 198 0 113-84 199-195 199-110 0-194-86-194-199z m478-652c27 0 50 23 50 50v38c0 18-2 34-5 51 0 2 0 4-1 6-1 5-2 10-3 14-9 34-23 65-42 93-50 72-133 120-227 120h-111c-153 0-278-127-278-284v-38c0-27 22-50 50-50h567z m161 50c0-27 22-50 50-50h122c28 0 50 23 50 50v19c0 113-93 204-208 204-27 0-44-29-36-54 14-41 22-85 22-131v-38z m-28 291c77 0 139 63 139 141 0 78-62 142-139 142-77 0-139-64-139-142 0-78 62-141 139-141z" horiz-adv-x="1000" />

<glyph glyph-name="leftmenu-types" unicode="&#xe819;" d="M0 750c0 55 45 100 100 100h250c55 0 100-45 100-100v-250c0-55-45-100-100-100h-250c-55 0-100 45-100 100v250z m100 0h250v-250h-250l0 250z m550 100c-55 0-100-45-100-100v-250c0-55 45-100 100-100h250c55 0 100 45 100 100v250c0 55-45 100-100 100h-250z m-650-650c0 55 45 100 100 100h250c55 0 100-45 100-100v-250c0-55-45-100-100-100h-250c-55 0-100 45-100 100v250z m550 0c0 55 45 100 100 100h250c55 0 100-45 100-100v-250c0-55-45-100-100-100h-250c-55 0-100 45-100 100v250z m100 0h250v-250h-250v250z" horiz-adv-x="1000" />

<glyph glyph-name="leftmenu-journal" unicode="&#xe81a;" d="M450 600c0 28 22 50 50 50h150c28 0 50-22 50-50 0-28-22-50-50-50h-150c-28 0-50 22-50 50z m0-200c0 28 22 50 50 50h150c28 0 50-22 50-50 0-28-22-50-50-50h-150c-28 0-50 22-50 50z m-250 350v-500c-33 0-68-3-94-23-27-21-56-59-56-127 0-125 125-250 225-250h425c138 0 250 112 250 250v650c0 55-45 100-100 100h-550c-55 0-100-45-100-100z m650 0h-550v-500c0 0 217 0 350 0 30 0 75 0 100-50 25-50 25-200-50-175-47 16-45 51-43 82 1 18 2 34-7 43-25 25-100 11-100-75 0-86 75-125 150-125 75 0 150 67 150 150v650z" horiz-adv-x="1000" />

<glyph glyph-name="leftmenu-journal-setting" unicode="&#xe81b;" d="M900 100v160c0 11-11 18-22 14-21-8-42-14-65-18-7-2-13-8-13-15v-141c0-83-75-150-150-150-75 0-150 39-150 125 0 86 75 100 100 75 6-6 8-14 8-24 0-6 0-12-1-19-2-31-4-66 43-82 75-25 75 125 50 175-25 50-70 50-100 50h-350v500h174c6 0 11 3 14 9 12 23 26 44 42 64 9 10 2 27-12 27h-218c-55 0-100-45-100-100v-500c-33 0-68-3-94-23-27-21-56-59-56-127 0-125 125-250 225-250h425c138 0 250 112 250 250z m82 540c7 0 16-5 16-12 3-19 3-38 0-57 0-7-7-13-14-12l-3 0c-22 0-43-14-51-34-10-22-4-47 14-62 5-5 6-14 1-19-12-15-25-29-40-40-6-5-14-4-19 1-15 16-42 23-62 14-9-4-17-10-23-17-8-10-12-23-11-36 0-7-6-14-13-14-6-1-12-2-18-2-3 0-6 0-9 0-10 0-19 1-29 2-7 1-13 7-12 14 1 24-13 46-34 55-21 8-48 2-62-14-5-6-14-7-19-2-15 12-28 25-40 40-5 6-4 14 1 19 12 10 18 25 19 40 0 7-2 15-5 22-8 21-29 35-51 34-7 0-16 5-16 12-2 19-2 38 0 57 1 7 6 13 14 12 25 0 46 14 55 34 9 22 3 47-14 63-6 5-7 13-2 19 12 14 26 28 41 40 5 4 13 3 18-2 15-16 42-22 62-14 22 9 35 30 35 53-1 7 5 14 12 15 19 2 37 2 56-1 7 0 13-7 12-14-1-24 13-45 34-55 21-8 48-2 63 15 4 5 13 6 19 1 14-12 27-25 39-40 3-3 4-7 3-11-1-3-2-6-4-8-17-15-23-40-14-62 8-20 29-34 51-34z m-315-40c0-46 37-84 83-84 46 0 84 38 84 84 0 46-38 83-84 83-46 0-83-37-83-83z" horiz-adv-x="1000" />

<glyph glyph-name="leftmenu-template" unicode="&#xe81c;" d="M250 750c0 55 45 100 100 100h500c55 0 100-45 100-100v-600c0-55-45-100-100-100h-150v-100c0-55-45-100-100-100h-500c-55 0-100 45-100 100v600c0 55 45 100 100 100h150v100z m150-100h200c55 0 100-45 100-100v-350h100v500h-400v-50z m-250-650v500h400v-500h-400z" horiz-adv-x="1000" />

<glyph glyph-name="leftmenu-tool" unicode="&#xe81d;" d="M883 536c47 48 126 26 116-41-9-63-39-124-87-173-85-85-206-111-313-77-4-5-8-9-12-13l-339-339c-57-57-149-57-205 0-57 56-57 148 0 205l339 339c4 4 8 8 13 12-34 107-8 228 77 313 49 48 110 78 173 87 67 10 89-69 41-116l-6-7c-33-33-45-83-29-127 17-46 52-81 98-98 44-16 94-4 127 29l7 6z m-708-586c42 0 76 34 76 76 0 41-34 75-76 75-41 0-75-34-75-75 0-42 34-76 75-76z" horiz-adv-x="1000" />

<glyph glyph-name="leftmenu-more" unicode="&#xe81e;" d="M500-150c276 0 500 224 500 500 0 276-224 500-500 500-276 0-500-224-500-500 0-276 224-500 500-500z m-300 400c55 0 100 45 100 100 0 55-45 100-100 100-55 0-100-45-100-100 0-55 45-100 100-100z m400 100c0-55-45-100-100-100-55 0-100 45-100 100 0 55 45 100 100 100 55 0 100-45 100-100z m200-100c55 0 100 45 100 100 0 55-45 100-100 100-55 0-100-45-100-100 0-55 45-100 100-100z" horiz-adv-x="1000" />

<glyph glyph-name="leftmenu-controlled" unicode="&#xe81f;" d="M500 250c55 0 100 45 100 100 0 55-45 100-100 100-55 0-100-45-100-100 0-55 45-100 100-100z m0 400c-243 0-410-162-481-248-25-30-25-74 0-104 71-86 238-248 481-248 243 0 410 162 481 248 25 30 25 74 0 104-71 86-238 248-481 248z m200-300c0-110-89-200-200-200-110 0-200 90-200 200 0 110 90 200 200 200 111 0 200-90 200-200z" horiz-adv-x="1000" />

<glyph glyph-name="leftmenu-journal-current-tasks" unicode="&#xe820;" d="M480 850c-28 0-50-22-50-49 0-1 0-1 0-1h-30c-28 0-50-22-50-50v-50c0-28 22-50 50-50h200c28 0 50 22 50 50v50c0 28-22 50-50 50h-29c-1 0-1 0-1 1 0 27-22 49-49 49h-41z m-280-100l50 0v-50c0-83 67-150 150-150h200c83 0 150 67 150 150v50l50 0c55 0 100-45 100-100l0-700c0-55-45-100-100-100h-600c-55 0-100 45-100 100v700c0 55 45 100 100 100z m300-400c-28 0-50-23-50-50 0-28 22-50 50-50h200c28 0 50 22 50 50 0 27-22 50-50 50h-200z m-50-250c0 27 22 50 50 50h200c28 0 50-23 50-50 0-28-22-50-50-50h-200c-28 0-50 22-50 50z m-150 250c-28 0-50-23-50-50 0-28 22-50 50-50 28 0 50 22 50 50 0 27-22 50-50 50z m-50-250c0 27 22 50 50 50 28 0 50-23 50-50 0-28-22-50-50-50-28 0-50 22-50 50z" horiz-adv-x="1000" />

<glyph glyph-name="leftmenu-completed" unicode="&#xe821;" d="M500-150c276 0 500 224 500 500 0 276-224 500-500 500-276 0-500-224-500-500 0-276 224-500 500-500z m-204 550c-20 20-51 20-71 0-19-19-19-51 0-71l175-179c20-19 51-19 71 0l304 304c20 20 20 52 0 71-19 20-51 20-71 0l-269-269-139 144z" horiz-adv-x="1000" />

<glyph glyph-name="small-plus" unicode="&#xe822;" d="M571 636c0 43-28 71-71 71s-71-28-71-71v-215h-215c-43 0-71-28-71-71s28-71 71-71h215v-215c0-43 28-71 71-71s71 28 71 71v215h215c43 0 71 28 71 71s-28 71-71 71h-215v215z" horiz-adv-x="1000" />

<glyph glyph-name="calendar" unicode="&#xe823;" d="M150 775c0 40 35 75 75 75s75-35 75-75v-75h400v75c0 40 35 75 75 75s75-35 75-75v-75h100c30 0 50-20 50-50v-750c0-30-20-50-50-50h-900c-30 0-50 20-50 50v750c0 30 20 50 50 50h100v75z m700-325h-700v-450h700v450z m-450-100h-50c-30 0-50-20-50-50s20-50 50-50h50c30 0 50 20 50 50s-20 50-50 50z m200-100h50c30 0 50 20 50 50s-20 50-50 50h-50c-30 0-50-20-50-50s20-50 50-50z m-200-50h-50c-30 0-50-20-50-50s20-50 50-50h50c30 0 50 20 50 50s-20 50-50 50z m250 0h-50c-30 0-50-20-50-50s20-50 50-50h50c30 0 50 20 50 50s-20 50-50 50z" horiz-adv-x="1000" />

<glyph glyph-name="small-eye-show" unicode="&#xe824;" d="M993 321c0 0 0 0 0 0 0 8 7 15 7 22 0 7 0 7 0 14 0 7 0 7 0 14 0 8 0 8-7 15 0 0 0 0 0 7l0 0c0 0 0 0 0 0 0 0 0 0 0 0l0 0 0 0 0 0 0 0c0 0 0 0 0 0 0 0 0 7-7 14-7 7-15 22-22 36-21 28-50 71-85 107-86 71-208 157-379 157s-293-86-371-164c-43-43-72-79-86-107-14-15-22-29-29-36 0-7-7-7-7-14 0 0 0 0 0 0l0 0 0 0 0 0 0 0c0 0 0 0 0 0 0 0 0 0 0 0l0 0c0 0 0 0 0-7 0-8 0-8-7-15 0-7 0-7 0-14 0-7 0-7 0-14 0-7 0-7 7-15 0 0 0 0 0-7l0 0c0 0 0 0 0 0 0 0 0 0 0 0l0 0 0 0 0 0 0 0c0 0 0 0 0 0 0 0 0-7 7-14 7-7 15-21 22-36 21-28 50-71 85-107 86-78 208-164 379-164 171 0 293 86 371 164 43 43 72 79 86 107 7 15 14 29 22 36 7 7 7 7 14 21 0-7 0-7 0 0l0 0 0 0 0 0 0 0c0 0 0 0 0 0 0 0 0 0 0 0l0 0z m-222-64c-64-64-157-121-271-121-114 0-207 57-271 121-29 29-58 64-72 86 0 0 0 0 0 7 0 0 0 0 0 7 14 22 43 57 72 86 64 64 157 121 271 121s207-57 271-121c29-29 58-64 72-86 0 0 0 0 0-7 0 0 0 0 0-7-14-22-43-57-72-86z m-128 93c0-79-64-143-143-143s-143 64-143 143 64 143 143 143 143-64 143-143z" horiz-adv-x="1000" />

<glyph glyph-name="upload" unicode="&#xe825;" d="M50 250c-30 0-50-20-50-50v-250c0-55 45-100 100-100h800c55 0 100 45 100 100v250c0 30-20 50-50 50h-50c-30 0-50-20-50-50v-200h-700v200c0 30-20 50-50 50h-50z m110 270l50-60c15-15 40-15 55-5l155 135v-450c0-20 20-40 40-40h80c20 0 40 15 40 40v450l155-135c15-15 40-10 55 5l50 60c15 15 15 40-5 55l-310 270c-15 15-35 15-50 0l-310-270c-20-15-20-40-5-55z" horiz-adv-x="1000" />

<glyph glyph-name="copy" unicode="&#xe826;" d="M650 600h-550c-30 0-50-20-50-50v-650c0-30 20-50 50-50h550c30 0 50 20 50 50v650c0 30-20 50-50 50z m-100-600h-350v450h350v-450z m-200 850h550c30 0 50-20 50-50v-650c0-30-20-50-50-50h-50c-30 0-50 20-50 50v550h-450c-30 0-50 20-50 50v50c0 30 20 50 50 50z" horiz-adv-x="1000" />

<glyph glyph-name="group" unicode="&#xe827;" d="M850 800h-700c-55 0-100-45-100-100v-700c0-55 45-100 100-100h700c55 0 100 45 100 100v700c0 55-45 100-100 100z m0-800h-700v700h700v-700z m-550 600h400c30 0 50-20 50-50l0 0c0-30-20-50-50-50h-400c-30 0-50 20-50 50l0 0c0 30 20 50 50 50z m200-200h200c30 0 50-20 50-50l0 0c0-30-20-50-50-50h-200c-30 0-50 20-50 50l0 0c0 30 20 50 50 50z m0-200h200c30 0 50-20 50-50l0 0c0-30-20-50-50-50h-200c-30 0-50 20-50 50l0 0c0 30 20 50 50 50z" horiz-adv-x="1000" />

<glyph glyph-name="small-eye-hide" unicode="&#xe828;" d="M993 379c0 0 0 0 0 0l0 0c0 0 0 0 0 0 0 0 0 0 0 0l0 0 0 0 0 0 0 0c0 7 0 7-7 7 0 0 0 7-7 14-8 7-15 21-22 36-21 28-50 71-86 107-14 14-28 21-42 36l150 150c28 28 28 71 0 100-29 28-72 28-100 0l-172-172c-57 29-128 50-207 50-171 0-293-86-371-164-43-43-72-79-86-107-14-15-22-29-29-36 0-7-7-7-7-14 0 0 0 0 0 0l0 0 0 0 0 0 0 0c0 0 0 0 0 0 0 0 0 0 0 0l0 0c0 0 0 0 0-7 0-8 0-8-7-15 0-7 0-7 0-14 0-7 0-7 0-14 0-7 0-7 7-15 0 0 0 0 0-7l0 0c0 0 0 0 0 0 0 0 0 0 0 0l0 0 0 0 0 0 0 0c0 0 0 0 0 0 0 0 0-7 7-14 7-7 15-21 22-36 21-28 50-71 85-107 15-14 29-21 43-36l-150-150c-28-28-28-71 0-100s72-28 100 0l172 172c64-29 135-50 214-50 171 0 293 86 371 164 43 43 72 79 86 107 7 15 14 29 22 36 0 7 7 7 7 14 0 0 0 0 0 0l0 0 0 0 0 0 0 0c0 0 0 0 0 0 0 0 0 0 0 0l0 0c0 0 0 0 0 7 0 8 0 8 7 15 0 7 0 7 0 14 0 7 0 7 0 14 7 7 0 7 0 15z m-722-158c-14 15-28 22-42 36-29 29-58 64-72 86 0 0 0 0 0 7 0 0 0 0 0 7 14 22 43 57 72 86 64 64 157 121 271 121 36 0 71-7 100-14l-64-64c-15 7-22 7-36 7-79 0-143-64-143-143 0-14 0-21 7-36l-93-93z m572 122c-14-22-43-57-72-86-64-64-157-121-271-121-36 0-71 7-100 14l64 64c15-7 22-7 36-7 79 0 143 64 143 143 0 14 0 21-7 36l93 93c14-15 28-22 42-36 29-29 58-64 72-86 0-7 0-7 0-14 0 7 0 7 0 0z" horiz-adv-x="1000" />

<glyph glyph-name="question" unicode="&#xe829;" d="M445 265v25c0 20 5 40 15 55 10 15 25 35 50 50 25 15 40 30 45 40 10 10 10 25 10 35 0 15-5 25-15 35-10 10-25 10-45 10-35 0-75-10-115-35l-40 85c50 30 105 45 160 45 45 0 85-10 110-35 30-25 40-55 40-90 0-25-5-45-15-65-10-20-35-40-65-60-20-15-35-30-40-35-5-10-10-20-10-35v-20h-85z m-10-115c0 20 5 35 15 45 10 10 25 15 45 15 20 0 35-5 45-15 10-10 15-25 15-45 0-20-5-30-15-45-10-10-25-15-45-15-20 0-35 5-45 15-10 10-15 25-15 45z m65 700c-275 0-500-225-500-500 0-275 225-500 500-500s500 225 500 500c0 275-225 500-500 500z m0-900c-220 0-400 180-400 400 0 220 180 400 400 400s400-180 400-400c0-220-180-400-400-400z" horiz-adv-x="1000" />

<glyph glyph-name="apps" unicode="&#xe82a;" d="M750 350c0-140-110-250-250-250s-250 110-250 250 110 250 250 250 250-110 250-250z m-650 500c-55 0-100-45-100-100v-800c0-55 45-100 100-100h800c55 0 100 45 100 100v800c0 55-45 100-100 100h-800z m750-500c0-195-155-350-350-350s-350 155-350 350 155 350 350 350 350-155 350-350z" horiz-adv-x="1000" />

<glyph glyph-name="filter" unicode="&#xe82b;" d="M957 850h-914c-16 0-31-9-38-23-8-14-6-31 3-44l335-460c0 0 0 0 0 0 13-16 19-36 19-56v-375c0-11 5-22 13-30 8-8 19-12 30-12 6 0 11 1 17 3l188 70c17 5 28 21 28 39v305c0 20 7 40 19 56 0 0 0 0 0 0l335 460c9 13 11 30 3 44-7 14-22 23-38 23z" horiz-adv-x="1000" />

<glyph glyph-name="edit" unicode="&#xe82c;" d="M680 835c20 20 55 20 75 0l230-230c20-20 20-55 0-75l-80-80c-20-20-55-20-75 0l-230 235c-20 20-20 55 0 75l80 75z m-230-230c20 20 55 20 75 0l40-40c20-20 20-55 0-75l-310-310c-20-20-55-20-75 0l-40 40c-20 20-20 55 0 75l310 310z m190-190c20 20 55 20 75 0l40-40c20-20 20-55 0-75l-305-305c-20-20-55-20-75 0l-40 40c-20 20-20 55 0 75l305 305z m-585-565c-35-5-60 25-55 55l20 175c5 45 55 60 85 30l155-155c30-30 10-85-30-85l-175-20z" horiz-adv-x="1000" />

<glyph glyph-name="small-left" unicode="&#xe82d;" d="M693 686c28-29 28-72 0-100l-236-236 236-236c28-28 28-71 0-100-29-28-72-28-100 0l-286 286c-28 29-28 71 0 100l286 286c28 28 71 28 100 0z" horiz-adv-x="1000" />

<glyph glyph-name="small-minus" unicode="&#xe82e;" d="M214 421h572c43 0 71-28 71-71l0 0c0-43-28-71-71-71h-572c-43 0-71 28-71 71l0 0c0 43 28 71 71 71z" horiz-adv-x="1000" />

<glyph glyph-name="search" unicode="&#xe82f;" d="M960-60l-235 250c60 75 95 165 95 260 0 225-180 405-395 405s-400-185-400-410c0-225 180-405 395-405 80 0 160 25 230 75l235-250c10-10 25-15 35-15 15 0 25 5 35 15 25 20 25 55 5 75z m-540 805c160 0 295-135 295-300 0-165-130-300-295-300s-295 135-295 300c5 165 135 300 295 300z" horiz-adv-x="1000" />

<glyph glyph-name="small-arrow-left" unicode="&#xe830;" d="M857 421h-543l165 165c28 28 28 71 0 100-29 28-72 28-100 0l-286-286c-29-29-29-71 0-100l286-286c28-28 71-28 100 0 28 29 28 72 0 100l-165 165h543c43 0 72 28 72 71s-29 71-72 71z" horiz-adv-x="1000" />

<glyph glyph-name="eye-show" unicode="&#xe831;" d="M500 650c-190 0-365-105-490-275-10-15-10-35 0-50 130-170 300-275 490-275 190 0 365 105 490 275 10 15 10 35 0 50-125 170-300 275-490 275z m15-510c-125-10-230 95-225 225 5 105 90 190 195 195 125 10 230-95 225-225-5-105-90-190-195-195z m-10 95c-70-5-125 50-120 120 5 55 50 105 105 105 70 5 125-50 120-120 0-55-45-100-105-105z" horiz-adv-x="1000" />

<glyph glyph-name="small-filter" unicode="&#xe832;" d="M71 707l322-357v-357l214 57v300l322 357h-858z" horiz-adv-x="1000" />

<glyph glyph-name="small-down" unicode="&#xe833;" d="M164 471c29 29 72 29 100 0l236-235 236 235c28 29 71 29 100 0 28-28 28-71 0-100l-286-285c-29-29-71-29-100 0l-286 285c-28 29-28 72 0 100z" horiz-adv-x="1000" />

<glyph glyph-name="custom-drag-big" unicode="&#xe834;" d="M393 779c0-40-32-72-72-72-39 0-71 32-71 72s32 71 71 71c40 0 72-32 72-71z m0-286c0-39-32-72-72-72-39 0-71 33-71 72 0 39 32 71 71 71 40 0 72-32 72-71z m0-286c0-39-32-71-72-71-39 0-71 32-71 71s32 72 71 72c40 0 72-33 72-72z m0-286c0-39-32-71-72-71-39 0-71 32-71 71s32 72 71 72c40 0 72-32 72-72z m-250 858c0-40-32-72-72-72s-71 32-71 72 32 71 71 71 72-32 72-71z m0-286c0-39-32-72-72-72s-71 33-71 72c0 39 32 71 71 71s72-32 72-71z m0-286c0-39-32-71-72-71s-71 32-71 71 32 72 71 72 72-33 72-72z m0-286c0-39-32-71-72-71s-71 32-71 71 32 72 71 72 72-32 72-72z" horiz-adv-x="393" />

<glyph glyph-name="custom-more-big-pressed" unicode="&#xe835;" d="M500 850c-277 0-500-223-500-500 0-277 223-500 500-500 277 0 500 223 500 500 0 277-223 500-500 500z m-233-567c-37 0-67 30-67 67 0 37 30 67 67 67s66-30 66-67c0-37-30-67-66-67z m233 0c-37 0-67 30-67 67 0 37 30 67 67 67s67-30 67-67c0-37-30-67-67-67z m233 0c-36 0-66 30-66 67 0 37 30 67 66 67s67-30 67-67c0-37-30-67-67-67z" horiz-adv-x="1000" />

<glyph glyph-name="decision-tables" unicode="&#xe836;" d="M0 750c0 55 45 100 100 100h800c55 0 100-45 100-100v-100h-1000v100z m0-200v-150h450v150h-450z m550 0v-150h450v150h-450z m-100-250h-450v-150h450v150z m100-150v150h450v-150h-450z m-100-100h-450v-100c0-55 45-100 100-100h350v200z m100-200v200h450v-100c0-55-45-100-100-100h-350z" horiz-adv-x="1000" />

<glyph glyph-name="custom-checkbox-outline-checked" unicode="&#xe837;" d="M727 850h-454c-150 0-273-123-273-273v-454c0-150 123-273 273-273h454c150 0 273 123 273 273v454c0 150-123 273-273 273z m182-727c0-100-82-182-182-182h-454c-100 0-182 82-182 182v454c0 100 82 182 182 182h454c100 0 182-82 182-182v-454z m-104 441c18-18 18-46 0-64l-364-364c-18-18-45-18-64 0l-181 182c-19 18-19 46 0 64 18 18 45 18 63 0l150-150 332 332c18 18 45 18 64 0z" horiz-adv-x="1000" />

<glyph glyph-name="custom-checkbox-outline-indeterminate" unicode="&#xe838;" d="M727 850h-454c-150 0-273-123-273-273v-454c0-150 123-273 273-273h454c150 0 273 123 273 273v454c0 150-123 273-273 273z m182-727c0-100-82-182-182-182h-454c-100 0-182 82-182 182v454c0 100 82 182 182 182h454c100 0 182-82 182-182v-454z m-591 273h364c27 0 45-19 45-46l0 0c0-27-18-45-45-45h-364c-27 0-45 18-45 45l0 0c0 27 18 46 45 46z" horiz-adv-x="1000" />

<glyph glyph-name="custom-checkbox-filled-unchecked" unicode="&#xe839;" d="M727 850h-454c-150 0-273-123-273-273v-454c0-150 123-273 273-273h454c150 0 273 123 273 273v454c0 150-123 273-273 273z" horiz-adv-x="1000" />

<glyph glyph-name="bold" unicode="&#xe83a;" d="M83-150h361c315 0 362 191 362 306 0 111-49 198-135 250 33 45 51 102 51 166 0 161-117 278-278 278h-361c-46 0-83-37-83-83v-834c0-46 37-83 83-83z m84 833h277c71 0 112-40 112-111 0-69-42-111-112-111h-277v222z m0-389h277c89 0 195-24 195-138 0-71-15-139-195-139h-277v277z" horiz-adv-x="833" />

<glyph glyph-name="small-up" unicode="&#xe83b;" d="M836 157c-29-28-72-28-100 0l-236 236-236-236c-28-28-71-28-100 0-28 29-28 72 0 100l286 286c29 28 71 28 100 0l286-286c28-28 28-71 0-100z" horiz-adv-x="1000" />

<glyph glyph-name="custom-checkbox-minus" unicode="&#xe83c;" d="M318 396h364c27 0 45-19 45-46l0 0c0-27-18-45-45-45h-364c-27 0-45 18-45 45l0 0c0 27 18 46 45 46z" horiz-adv-x="1000" />

<glyph glyph-name="custom-checkbox-check" unicode="&#xe83d;" d="M805 564c18-18 18-46 0-64l-364-364c-18-18-45-18-64 0l-181 182c-19 18-19 46 0 64s45 18 63 0l150-150 332 332c18 18 45 18 64 0z" horiz-adv-x="1000" />

<glyph glyph-name="custom-checkbox-filled-checked" unicode="&#xe83e;" d="M727 850h-454c-150 0-273-123-273-273v-454c0-150 123-273 273-273h454c150 0 273 123 273 273v454c0 150-123 273-273 273z m78-350l-364-364c-18-18-45-18-64 0l-181 182c-19 18-19 46 0 64 18 18 45 18 63 0l150-150 332 332c18 18 45 18 64 0 18-18 18-46 0-64z" horiz-adv-x="1000" />

<glyph glyph-name="custom-resize-vertical" unicode="&#xe83f;" d="M63-150c-35 0-63 28-63 62l0 876c0 34 28 62 63 62 34 0 62-28 62-62l0-876c0-34-28-62-62-62z m312 0c-34 0-62 28-62 62l0 876c0 34 28 62 62 62 35 0 63-28 63-62l0-876c0-34-28-62-63-62z m313 0c-35 0-63 28-63 62l0 876c0 34 28 62 63 62 34 0 62-28 62-62l0-876c0-34-28-62-62-62z" horiz-adv-x="750" />

<glyph glyph-name="custom-drag-small" unicode="&#xe840;" d="M95 660c53 0 96 42 96 95 0 52-43 95-96 95-52 0-95-43-95-95 0-53 43-95 95-95z m334 0c52 0 95 42 95 95 0 52-43 95-95 95-53 0-96-43-96-95 0-53 43-95 96-95z m0-381c52 0 95 42 95 95 0 52-43 95-95 95-53 0-96-43-96-95 0-53 43-95 96-95z m95-286c0-53-43-95-95-95-53 0-96 42-96 95 0 53 43 95 96 95 52 0 95-42 95-95z m-333 381c0-53-43-95-96-95-52 0-95 42-95 95 0 52 43 95 95 95 53 0 96-43 96-95z m-96-476c53 0 96 42 96 95 0 53-43 95-96 95-52 0-95-42-95-95 0-53 43-95 95-95z" horiz-adv-x="533" />

<glyph glyph-name="history" unicode="&#xe841;" d="M325 550h250c40 0 75-35 75-75l0 0c0-40-35-75-75-75h-250c-40 0-75 35-75 75l0 0c0 40 35 75 75 75z m0-250h250c40 0 75-35 75-75l0 0c0-40-35-75-75-75h-250c-40 0-75 35-75 75l0 0c0 40 35 75 75 75z m425 400v-700h-600v700h600m45 150h-690c-60 0-105-45-105-105v-790c0-60 45-105 105-105h690c60 0 105 45 105 105v790c0 60-45 105-105 105l0 0z" horiz-adv-x="900" />

<glyph glyph-name="users" unicode="&#xe842;" d="M163 617c0-133 99-234 229-234 131 0 229 101 229 234 0 133-98 233-229 233-130 0-229-100-229-233z m563-767c32 0 58 26 58 59v44c0 21-1 40-5 59 0 3-1 6-1 8-1 6-3 11-4 17-10 39-27 76-49 108-60 86-157 142-267 142h-131c-180 0-327-150-327-334v-44c0-33 26-59 59-59h667z m189 59c0-33 26-59 59-59h144c32 0 59 26 59 59v22c0 132-110 239-246 239v0c-31 0-51-33-41-63 16-48 25-100 25-154v-44z m-33 341c91 0 164 75 164 167 0 92-73 166-164 166-90 0-163-74-163-166 0-92 73-167 163-167z" horiz-adv-x="1176" />

<glyph glyph-name="small-clock" unicode="&#xe843;" d="M500-150c276 0 500 224 500 500 0 276-224 500-500 500-276 0-500-224-500-500 0-276 224-500 500-500z m-83 833h83v-333h250v-83h-333v416z" horiz-adv-x="1000" />

<glyph glyph-name="user-away" unicode="&#xe844;" d="M0 350c0 271 229 500 500 500 271 0 500-229 500-500 0-29-3-58-8-86-42 23-90 36-142 36-85 0-162-36-217-93-26 9-54 14-83 14h-100c-86 0-160-44-205-110 64-68 154-111 255-111 17 0 34 1 50 4 0-2 0-3 0-4 0-52 13-100 36-142-28-5-57-8-86-8-271 0-500 229-500 500z m650 100c0 86-64 150-150 150-86 0-150-64-150-150 0-86 64-150 150-150 86 0 150 64 150 150z m135-315c-19 20-51 20-70 0-20-19-20-51 0-70l64-65-64-65c-20-19-20-51 0-70 19-20 51-20 70 0l65 64 65-64c19-20 51-20 70 0 20 19 20 51 0 70l-64 65 64 65c20 19 20 51 0 70-19 20-51 20-70 0l-65-64-65 64z" horiz-adv-x="1000" />

<glyph glyph-name="user-online" unicode="&#xe845;" d="M0 350c0 271 229 500 500 500 271 0 500-229 500-500 0-39-5-78-14-115-51 41-116 65-186 65-80 0-153-31-207-82-14 2-28 3-43 3h-100c-86 0-160-44-205-110 64-68 154-111 255-111 0-54 14-105 39-148-13-2-26-2-39-2-271 0-500 229-500 500z m650 100c0 86-64 150-150 150-86 0-150-64-150-150 0-86 64-150 150-150 86 0 150 64 150 150z m340-315c19-19 19-51 0-70l-190-190c-19-20-51-20-71 0l-114 110c-20 20-20 52 0 71 19 20 51 20 70 0l80-75 154 154c19 20 51 20 71 0z" horiz-adv-x="1050" />

<glyph glyph-name="user-normal" unicode="&#xe846;" d="M500 850c-271 0-500-229-500-500 0-271 229-500 500-500 271 0 500 229 500 500 0 271-229 500-500 500z m0-250c86 0 150-64 150-150 0-86-64-150-150-150-86 0-150 64-150 150 0 86 64 150 150 150z m-255-489c45 66 119 110 205 110h100c86 0 160-44 205-110-64-68-154-111-255-111-101 0-191 43-255 111z" horiz-adv-x="1000" />

<glyph glyph-name="exit" unicode="&#xe847;" d="M500 605l-60-50c-15-15-15-40 0-55l50-70h-450c-25 0-40-20-40-40l0-80c0-20 15-40 40-40h450l-45-70c-15-15-10-40 5-55l60-50c15-15 40-15 55 5l180 225c15 15 15 35 0 50l-185 230c-20 15-45 15-60 0z m-350-480c-30 0-50-20-50-50v-125c0-55 45-100 100-100h700c55 0 100 45 100 100v800c0 55-45 100-100 100l-700 0c-55 0-100-45-100-100v-125c0-30 20-50 50-50h50c30 0 50 20 50 50v75h600v-700h-600v75c0 30-20 50-50 50h-50z" horiz-adv-x="1000" />

<glyph glyph-name="pie" unicode="&#xe848;" d="M410 735c0 65-60 110-115 85-170-85-290-255-290-460 0-280 225-505 505-505 200 0 375 120 455 290 25 55-20 115-85 115h-375c-55 0-100 45-100 100v375z m580-215c10-30-15-60-45-60h-285c-30 0-50 20-50 50v285c0 30 30 55 60 45 150-50 270-170 320-320z" horiz-adv-x="1000" />

<glyph glyph-name="notify" unicode="&#xe849;" d="M900 850h-800c-55 0-100-45-100-100v-600c0-55 45-100 100-100h225l135-175c20-25 55-25 75 0l135 175h230c55 0 100 45 100 100v600c0 55-45 100-100 100z m-50-650h-225l-125-150-125 150h-225v500h700v-500z m-525 350h350c40 0 75-35 75-75l0 0c0-40-35-75-75-75h-350c-40 0-75 35-75 75l0 0c0 40 35 75 75 75z" horiz-adv-x="1000" />

<glyph glyph-name="custom-file-doc" unicode="&#xe84a;" d="M559 850h-400c-59 0-106-47-106-106v-394h-10c-24 0-43-19-43-43v-261c0-24 19-43 43-43h10v-47c0-59 47-106 106-106h545c58 0 105 47 105 106v641l-250 253z m-489-579c15 2 34 4 55 4 34 0 56-6 73-19 19-13 30-36 30-68 0-34-13-59-30-74-19-15-47-22-83-22-21 0-36 1-45 1l0 178 0 0z m636-355h-547c-23 0-42 19-42 41v48h509c25 0 44 19 44 43v259c0 24-19 43-44 43h-509v394c0 23 19 42 42 42l375 0v-140c0-41 32-73 74-73l135 0 2-616c2-24-17-41-39-41z m-457 266c0 55 34 94 87 94 55 0 85-41 85-90 0-59-36-94-89-94-53-2-83 39-83 90z m291-58c13 0 26 2 34 5l5-32c-7-4-24-7-45-7-62 0-94 39-94 90 0 63 43 96 98 96 21 0 38-3 43-7l-7-32c-8 4-19 7-34 7-32 0-57-18-57-60 0-36 21-60 57-60z m-353 62c0 38-21 57-57 57-9 0-15 0-19-2v-119c4 0 10 0 14 0 37 2 62 22 62 64z m190-2c0 32-15 60-43 60-28 0-43-26-43-60 0-36 17-60 43-60 28 0 43 26 43 60z" horiz-adv-x="811" />

<glyph glyph-name="custom-file-empty" unicode="&#xe84b;" d="M561 850h-455c-59 0-106-48-106-106 0-263 0-553 0-788 0-58 47-106 106-106h600c58 0 105 48 105 106v642l-250 252z m145-935h-600c-23 0-41 19-41 41 0 32 0 386 0 788 0 22 18 41 41 41l430 0v-139c0-41 33-74 74-74l135 0 2-616c0-22-19-41-41-41z" horiz-adv-x="811" />

<glyph glyph-name="alert" unicode="&#xe84c;" d="M990-10l-400 805c-40 75-140 75-175 0l-400-805c-35-65 10-140 85-140h800c75 0 120 75 90 140z m-490-45c-40 0-75 35-75 75 0 40 35 75 75 75 40 0 75-35 75-75 0-40-35-75-75-75z m75 320c0-40-35-75-75-75-40 0-75 35-75 75v245c0 40 35 70 75 70 40 0 75-35 75-75v-240z" horiz-adv-x="1000" />

<glyph glyph-name="new-tab" unicode="&#xe84d;" d="M501 814l-5-78c-1-21 16-40 37-41l153-15-314-315c-15-15-15-40 0-55l56-56c15-15 40-15 55 0l315 314 15-153c1-21 20-38 41-37l78 5c21 1 38 19 36 41l-31 359c-1 19-17 35-36 36l-359 31c-22 2-40-15-41-36z m-351-264v-550h550v225c0 28 22 50 50 50h50c28 0 50-22 50-50v-325c0-28-22-50-50-50h-750c-28 0-50 22-50 50v750c0 28 22 50 50 50h300c28 0 50-22 50-50v-50c0-28-22-50-50-50h-200z" horiz-adv-x="1000" />

<glyph glyph-name="small-right" unicode="&#xe84e;" d="M379 14c-29 29-29 72 0 100l235 236-235 236c-29 28-29 71 0 100 28 28 71 28 100 0l285-286c29-29 29-71 0-100l-285-286c-29-28-72-28-100 0z" horiz-adv-x="1000" />

<glyph glyph-name="list" unicode="&#xe84f;" d="M111 850h778c61 0 111-50 111-111l0 0c0-61-50-111-111-111h-778c-61 0-111 50-111 111l0 0c0 61 50 111 111 111z m0-389h778c61 0 111-50 111-111l0 0c0-61-50-111-111-111h-778c-61 0-111 50-111 111l0 0c0 61 50 111 111 111z m0-389h778c61 0 111-50 111-111l0 0c0-61-50-111-111-111h-778c-61 0-111 50-111 111l0 0c0 61 50 111 111 111z" horiz-adv-x="1000" />

<glyph glyph-name="columns" unicode="&#xe850;" d="M889 850h-222c-61 0-111-50-111-111v-778c0-61 50-111 111-111h222c61 0 111 50 111 111v778c0 61-50 111-111 111z m-556 0h-222c-61 0-111-50-111-111v-778c0-61 50-111 111-111h222c61 0 111 50 111 111v778c0 61-50 111-111 111z" horiz-adv-x="1000" />

<glyph glyph-name="small-check" unicode="&#xe851;" d="M979 686c28-29 28-72 0-100l-572-572c-28-28-71-28-100 0l-286 286c-28 29-28 71 0 100 29 29 72 29 100 0l236-236 522 522c28 28 71 28 100 0z" horiz-adv-x="1000" />

<glyph glyph-name="custom-more-big-normal" unicode="&#xe852;" d="M500 283c37 0 67 30 67 67 0 37-30 67-67 67s-67-30-67-67c0-37 30-67 67-67z m-167 67c0-37-30-67-66-67s-67 30-67 67c0 37 30 67 67 67s66-30 66-67z m400-67c37 0 67 30 67 67 0 37-30 67-67 67s-66-30-66-67c0-37 30-67 66-67z m-233 567c-277 0-500-223-500-500 0-277 223-500 500-500 277 0 500 223 500 500 0 277-223 500-500 500z m0-933c-240 0-433 193-433 433 0 240 193 433 433 433s433-193 433-433c0-240-193-433-433-433z" horiz-adv-x="1000" />

<glyph glyph-name="reload" unicode="&#xe853;" d="M145 715l-55 55c-25 30-5 80 35 80h200c25 0 45-20 45-45v-205c0-40-50-65-80-35l-55 60c-145-150-145-395 0-545 30-35 70-60 110-80 25-10 45-40 45-65 0-45-40-75-75-60-65 25-120 60-170 110-195 200-195 530 0 730z m620-640c145 150 145 395 0 545-30 35-70 60-110 80-25 10-45 40-45 65 0 45 40 75 75 60 65-25 120-60 170-110 195-200 195-525 0-725l55-55c30-30 10-80-30-80h-200c-25 0-45 20-45 45v200c0 40 50 65 80 35l50-60z" horiz-adv-x="1000" />

<glyph glyph-name="items" unicode="&#xe854;" d="M0 850h167v-167h-167v167z m0-417h167v-166h-167v166z m0-416h167v-167h-167v167z m1333 666v167h-100-800-98v-167h98 800 100z m-1000-250h1000v-166h-1000v166z m0-416h1000v-167h-1000v167z" horiz-adv-x="1333" />

<glyph glyph-name="custom-more-small-pressed" unicode="&#xe855;" d="M500 850c-278 0-500-222-500-500 0-278 222-500 500-500 278 0 500 222 500 500 0 278-222 500-500 500z m-217-565c-35 0-66 30-66 65 0 35 31 65 66 65s65-30 65-65c0-35-31-65-65-65z m217 0c-35 0-65 30-65 65 0 35 30 65 65 65s65-30 65-65c0-35-30-65-65-65z m217 0c-34 0-65 30-65 65 0 35 31 65 65 65 35 0 66-30 66-65 0-35-31-65-66-65z" horiz-adv-x="1000" />

<glyph glyph-name="custom-more-small-normal" unicode="&#xe856;" d="M500 285c35 0 65 30 65 65s-30 65-65 65-65-30-65-65 30-65 65-65z m-152 65c0-35-31-65-65-65s-66 30-66 65 31 65 66 65 65-30 65-65z m369-65c35 0 66 30 66 65s-31 65-66 65-65-30-65-65 31-65 65-65z m-217 565c-278 0-500-222-500-500 0-278 222-500 500-500 278 0 500 222 500 500 0 278-222 500-500 500z m0-913c-226 0-413 187-413 413 0 226 187 413 413 413s413-187 413-413c0-226-187-413-413-413z" horiz-adv-x="1000" />

<glyph glyph-name="models" unicode="&#xe857;" d="M750 850c-55 0-100-45-100-100v-330l-195 195c-20 20-50 20-70 0-20-20-20-50 0-70l145-145h-480c-30 0-50-20-50-50 0-30 20-50 50-50h480l-145-145c-20-20-20-50 0-70 20-20 50-20 70 0l195 195v-330c0-55 45-100 100-100h150c55 0 100 45 100 100v800c0 55-45 100-100 100h-150z" horiz-adv-x="1000" />

<glyph glyph-name="settings" unicode="&#xe858;" d="M995 405c0 15-20 25-30 25-45 0-85 25-105 70-15 45-5 90 30 125 10 5 10 25 0 35-25 30-50 55-80 80-10 10-25 10-35-5-30-35-85-45-125-30-45 20-70 60-70 110 0 15-10 25-25 30-35 5-70 5-110 0-15 0-25-15-25-30 0-45-25-90-70-105-40-15-90-5-120 30-10 10-30 10-40 5-30-25-55-50-80-80-10-15-10-30 5-40 35-30 45-80 25-125-15-40-60-65-110-65-15 0-25-10-30-25 0-40 0-80 5-115 0-15 20-25 35-25 45 0 85-25 105-70 15-45 5-90-30-125-15-5-15-25-5-35 25-30 50-55 80-80 10-10 25-10 35 5 30 35 85 45 125 30 45-20 70-60 70-110 0-15 10-30 25-30 15-5 35-5 55-5 20 0 35 0 55 5 15 0 25 15 25 30 0 45 25 90 70 105 40 15 95 5 125-30 10-10 25-10 40-5 30 25 55 50 80 80 10 10 10 30-5 40-35 30-45 80-30 125 15 40 60 70 100 70l5 0c15 0 30 10 30 25 5 35 5 75 0 110z m-495-225c-90 0-165 75-165 165 0 90 75 165 165 165 90 0 165-75 165-165 5-90-70-165-165-165z" horiz-adv-x="1000" />

<glyph glyph-name="small-close" unicode="&#xe859;" d="M264 686c-28 28-71 28-100 0-28-29-28-72 0-100l236-236-236-236c-28-28-28-71 0-100 29-28 72-28 100 0l236 236 236-236c28-28 71-28 100 0 28 29 28 72 0 100l-236 236 236 236c28 28 28 71 0 100-29 28-72 28-100 0l-236-236-236 236z" horiz-adv-x="1000" />

<glyph glyph-name="actual" unicode="&#xe85a;" d="M928 628c-29 29-77 29-106 0l-347-347-125 119c-29 29-77 29-106 0-29-29-29-77 0-106l178-172c29-29 77-29 106 0l400 400c29 29 29 77 0 106z m-278 72h-500v-700h500v82c0 13 5 26 15 35l50 50c31 32 85 9 85-35v-232c0-28-22-50-50-50h-700c-28 0-50 22-50 50v900c0 28 22 50 50 50h700c28 0 50-22 50-50v-50c0-28-22-50-50-50h-100z" horiz-adv-x="950" />

<glyph glyph-name="download" unicode="&#xe85b;" d="M840 480l-50 60c-15 15-40 20-55 5l-155-135v400c0 20-20 40-40 40h-80c-20 0-40-15-40-40v-400l-155 135c-15 10-40 10-55-5l-50-60c-15-15-15-40 5-55l310-270c15-15 35-15 50 0l310 270c20 15 20 40 5 55z m120-480h-920c-20 0-40-15-40-40v-75c0-20 20-35 40-35h915c25 0 40 15 40 40v75c5 20-15 35-35 35z" horiz-adv-x="1000" />

<glyph glyph-name="case-models" unicode="&#xe85c;" d="M550 300h450v-350c0-55-45-100-100-100h-800c-55 0-100 45-100 100v350h450v-100c0-30 20-50 50-50 30 0 50 20 50 50v100z m350 350h-150v50c0 85-65 150-150 150h-200c-85 0-150-65-150-150v-50h-150c-55 0-100-45-100-100v-150h1000v150c0 55-45 100-100 100z m-250 0h-300v50c0 30 20 50 50 50h200c30 0 50-20 50-50v-50z" horiz-adv-x="1000" />

<glyph glyph-name="tiles" unicode="&#xe85d;" d="M111 850h222c61 0 111-50 111-111v-222c0-61-50-111-111-111h-222c-61 0-111 50-111 111v222c0 61 50 111 111 111z m0-556h222c61 0 111-50 111-111v-222c0-61-50-111-111-111h-222c-61 0-111 50-111 111v222c0 61 50 111 111 111z m556 556h222c61 0 111-50 111-111v-222c0-61-50-111-111-111h-222c-61 0-111 50-111 111v222c0 61 50 111 111 111z m0-556h222c61 0 111-50 111-111v-222c0-61-50-111-111-111h-222c-61 0-111 50-111 111v222c0 61 50 111 111 111z" horiz-adv-x="1000" />

<glyph glyph-name="delete" unicode="&#xe85e;" d="M450 850c-30 0-50-20-50-50v-50h-250c-30 0-50-20-50-50v-50c0-30 20-50 50-50h700c30 0 50 20 50 50v50c0 30-20 50-50 50h-250v50c0 30-20 50-50 50h-100z m340-350h-580c-30 0-55-25-50-60l85-550c5-25 25-40 50-40h415c25 0 45 20 50 40l85 550c0 35-25 60-55 60z m-340-500c0-30-20-50-50-50-30 0-50 20-50 50v350c0 30 20 50 50 50 30 0 50-20 50-50v-350z m200 0c0-30-20-50-50-50s-50 20-50 50v350c0 30 20 50 50 50s50-20 50-50v-350z" horiz-adv-x="1000" />

<glyph glyph-name="small-warning" unicode="&#xe85f;" d="M500 779c29 0 50-15 64-36l357-643c15-21 15-50 0-71s-35-36-64-36h-714c-29 0-50 14-64 36-15 21-15 50 0 71l357 643c14 21 35 36 64 36z m-236-643h472l-236 421-236-421z" horiz-adv-x="1000" />

<glyph glyph-name="small-arrow-right" unicode="&#xe860;" d="M907 400l-286 286c-28 28-71 28-100 0-28-29-28-72 0-100l165-165h-543c-43 0-72-28-72-71s29-71 72-71h543l-165-165c-28-28-28-71 0-100 29-28 72-28 100 0l286 286c29 29 29 71 0 100z" horiz-adv-x="1000" />

<glyph glyph-name="forms" unicode="&#xe861;" d="M100 850c-55 0-100-45-100-100v-100h1000v100c0 55-45 100-100 100h-800z m-100-300v-600c0-55 45-100 100-100h800c55 0 100 45 100 100v600h-1000z m750-450h-500c-30 0-50 20-50 50 0 30 20 50 50 50h500c30 0 50-20 50-50 0-30-20-50-50-50z m0 200h-500c-30 0-50 20-50 50 0 30 20 50 50 50h500c30 0 50-20 50-50 0-30-20-50-50-50z" horiz-adv-x="1000" />

<glyph glyph-name="custom-radiobutton-filled-unselect" unicode="&#xe862;" d="M500-150c276 0 500 224 500 500 0 276-224 500-500 500-276 0-500-224-500-500 0-276 224-500 500-500z" horiz-adv-x="1000" />

<glyph glyph-name="custom-radiobutton-dot" unicode="&#xe863;" d="M500-150c276 0 500 224 500 500 0 276-224 500-500 500-276 0-500-224-500-500 0-276 224-500 500-500z" horiz-adv-x="1000" />

<glyph glyph-name="custom-radiobutton-filled-select" unicode="&#xe864;" d="M500 850c-275 0-500-225-500-500 0-275 225-500 500-500 275 0 500 225 500 500 0 275-225 500-500 500z m0-708c-117 0-208 91-208 208s91 208 208 208 208-91 208-208-91-208-208-208z" horiz-adv-x="1000" />

<glyph glyph-name="custom-radiobutton-outline-unselect" unicode="&#xe865;" d="M500-150c-275 0-500 225-500 500 0 275 225 500 500 500 275 0 500-225 500-500 0-275-225-500-500-500z m0 917c-229 0-417-188-417-417 0-229 188-417 417-417 229 0 417 188 417 417 0 229-188 417-417 417z" horiz-adv-x="1000" />

<glyph glyph-name="custom-resize-widget" unicode="&#xe866;" d="M3583 17h-3500c-50 0-83-34-83-84s33-83 83-83h3500c50 0 84 33 84 83s-34 84-84 84z m0 416h-3500c-50 0-83-33-83-83s33-83 83-83h3500c50 0 84 33 84 83s-34 83-84 83z m-3500 250h3500c50 0 84 34 84 84s-34 83-84 83h-3500c-50 0-83-33-83-83s33-84 83-84z" horiz-adv-x="3667" />

<glyph glyph-name="underline" unicode="&#xe867;" d="M0 27h824v-177h-824v177z m0 823v-294c0-227 185-412 412-412 227 0 412 185 412 412v294h-118v-294c0-162-132-294-294-294-162 0-294 132-294 294v294h-118z" horiz-adv-x="824" />

<glyph glyph-name="italic" unicode="&#xe868;" d="M750 725v125h-500v-125h167l-214-750h-203v-125h500v125h-167l214 750h203z" horiz-adv-x="750" />

<glyph glyph-name="eye-hide" unicode="&#xe869;" d="M500 650c-191 0-364-105-492-276-11-14-11-34 0-48 128-171 301-276 492-276 191 0 364 105 492 276 11 14 11 34 0 48-128 171-301 276-492 276z m14-511c-127-8-232 97-224 225 7 105 92 191 196 197 127 8 232-97 224-225-7-105-92-190-196-197z m-7 97c-68-4-124 53-120 121 4 57 49 103 106 107 68 4 125-52 120-121-4-57-49-103-106-107z m315 530l-738-738c-19-19-22-46-7-60l53-53c14-15 41-12 60 7l738 738c19 19 22 46 7 60l-53 54c-14 14-41 11-60-8z" horiz-adv-x="1000" />

<glyph glyph-name="custom-lock" unicode="&#xe86a;" d="M697 446h-19v91c0 169-131 310-294 313-4 0-13 0-18 0-163-3-294-144-294-313v-91h-19c-29 0-53-31-53-69v-458c0-38 24-69 53-69h644c29 0 53 31 53 69v458c0 38-24 69-53 69z m-262-297v-138c0-16-13-30-28-30h-64c-15 0-28 14-28 30v138c-15 15-24 36-24 59 0 44 33 81 75 83 5 0 14 0 18 0 42-2 75-39 75-83 0-23-9-44-24-59z m118 297h-169-18-168v91c0 101 79 184 177 184 98 0 178-83 178-184v-91h0z" horiz-adv-x="750" />

<glyph glyph-name="custom-checkbox-outline-unchecked" unicode="&#xe86b;" d="M727 850h-454c-150 0-273-123-273-273v-454c0-150 123-273 273-273h454c150 0 273 123 273 273v454c0 150-123 273-273 273z m182-727c0-100-82-182-182-182h-454c-100 0-182 82-182 182v454c0 100 82 182 182 182h454c100 0 182-82 182-182v-454z" horiz-adv-x="1000" />

<glyph glyph-name="print" unicode="&#xe86c;" d="M900 600h-50v150c0 55-45 100-100 100h-500c-55 0-100-45-100-100v-150h-50c-55 0-100-45-100-100v-400c0-55 45-100 100-100h50v-50c0-55 45-100 100-100h500c55 0 100 45 100 100v50h50c55 0 100 45 100 100v400c0 55-45 100-100 100z m-600 100h400v-100h-400v100z m300-300c0-28-22-50-50-50h-50c-28 0-50 22-50 50 0 28 22 50 50 50h50c28 0 50-22 50-50z m-300-400v150h400v-150h-400z m550 400c0-28-22-50-50-50h-50c-28 0-50 22-50 50 0 28 22 50 50 50h50c28 0 50-22 50-50z" horiz-adv-x="1000" />

<glyph glyph-name="empty" unicode="&#xe88d;" d="M435 846c21 3 43 4 65 4 22 0 44-1 65-4 28-4 47-29 43-56-3-28-28-47-56-43-17 2-34 3-52 3-18 0-35-1-52-3-28-4-53 15-56 43-4 27 15 52 43 56z m-169-108c17-22 12-54-9-71-28-21-53-46-74-73-17-22-49-26-70-10-22 17-26 49-10 70 27 35 58 66 93 93 22 17 53 12 70-9z m468 0c17 21 49 26 70 9 35-27 66-58 93-93 17-21 12-53-9-70-22-16-54-12-71 10-21 27-46 52-73 73-22 17-26 49-10 71z m-674-280c28-3 47-28 43-56-2-17-3-34-3-52 0-18 1-35 3-52 4-28-15-53-43-56-27-4-52 15-56 43-3 21-4 43-4 65 0 22 1 44 4 65 4 28 29 47 56 43z m880 0c27 4 52-15 56-43 3-21 4-43 4-65 0-22-1-44-4-65-4-28-29-47-56-43-28 3-47 28-43 56 2 17 3 34 3 52 0 18-1 35-3 52-4 28 15 53 43 56z m-827-342c21 17 53 12 70-9 21-28 46-53 74-74 21-17 26-49 9-71-17-21-48-26-70-9-35 27-66 58-93 93-16 22-12 53 10 70z m775 0c21-17 26-48 9-70-27-35-58-66-93-93-21-17-53-12-70 9-16 22-12 54 10 71 27 21 52 46 73 74 17 21 49 26 71 9z m-496-206c3 28 28 47 56 43 17-2 34-3 52-3 18 0 35 1 52 3 28 4 53-15 56-43 4-27-15-52-43-56-21-3-43-4-65-4-22 0-44 1-65 4-28 4-47 29-43 56z" horiz-adv-x="1000" />

<glyph glyph-name="hamburger-menu" unicode="&#xe88e;" d="M0 762c0 49 40 88 88 88h1000c49 0 89-39 89-88 0-49-40-88-89-88h-1000c-48 0-88 39-88 88z m0-412c0 49 40 88 88 88h1000c49 0 89-39 89-88 0-49-40-88-89-88h-1000c-48 0-88 39-88 88z m0-412c0 49 40 89 88 89h1000c49 0 89-40 89-89 0-49-40-88-89-88h-1000c-48 0-88 39-88 88z" horiz-adv-x="1176" />
</font>
</defs>
</svg>
