<svg width="367" height="102" viewBox="0 0 367 102" fill="none" xmlns="http://www.w3.org/2000/svg">
<path fill-rule="evenodd" clip-rule="evenodd" d="M95.5181 42.4171H85.5107C83.34 42.4171 81.2582 41.5548 79.7233 40.0199L55.8276 16.1242C51.2178 11.5143 43.7438 11.5143 39.134 16.1242L13.9313 41.3269C9.32146 45.9367 9.32145 53.4107 13.9313 58.0205L39.134 83.2233C43.7438 87.8331 51.2178 87.8331 55.8276 83.2233L79.7233 59.3276C81.2582 57.7927 83.34 56.9304 85.5107 56.9304H95.4525C91.863 79.8992 71.9913 97.4725 48.0153 97.4725C21.4972 97.4725 0 75.9753 0 49.4572C0 22.9391 21.4972 1.44189 48.0153 1.44189C72.1418 1.44189 92.1122 19.2364 95.5181 42.4171Z" fill="#324473"/>
<rect x="47.916" y="33.4341" width="21.9526" height="21.9526" rx="2.74407" transform="rotate(45 47.916 33.4341)" fill="#324473"/>
<path d="M355.417 69.9588L335.783 50.1611V69.9588H326.747V8.34766H335.783V44.4928L351.474 27.8342H362.892L344.573 47.2037L367 69.9588H355.417Z" fill="#324473"/>
<path d="M297.34 70.7795C291.152 70.7795 286.004 68.7258 281.896 64.6184C277.844 60.4563 275.817 55.3905 275.817 49.421C275.817 43.4516 277.844 38.4132 281.896 34.3058C286.004 30.1436 291.152 28.0625 297.34 28.0625C302.652 28.0625 307.171 29.5412 310.895 32.4985C314.673 35.4558 317.111 39.262 318.206 43.9171H308.677C307.855 41.6169 306.431 39.7823 304.405 38.4132C302.433 36.9893 300.078 36.2773 297.34 36.2773C293.726 36.2773 290.768 37.5095 288.468 39.974C286.168 42.4384 285.018 45.5874 285.018 49.421C285.018 53.2546 286.168 56.4036 288.468 58.8681C290.768 61.3325 293.726 62.5647 297.34 62.5647C300.078 62.5647 302.433 61.8802 304.405 60.511C306.431 59.0871 307.855 57.2251 308.677 54.9249H318.206C317.111 59.58 314.673 63.3862 310.895 66.3435C307.171 69.3009 302.652 70.7795 297.34 70.7795Z" fill="#324473"/>
<path d="M248.876 70.7795C242.742 70.7795 237.703 68.7806 233.76 64.7827C229.817 60.7301 227.846 55.6095 227.846 49.421C227.846 43.2325 229.79 38.1393 233.678 34.1415C237.567 30.0888 242.66 28.0625 248.958 28.0625C255.311 28.0625 260.431 30.2805 264.319 34.7165C268.208 39.0977 269.933 44.7386 269.495 51.639H236.8C236.909 54.8154 238.114 57.4715 240.414 59.6074C242.715 61.7432 245.644 62.8112 249.204 62.8112C254.243 62.8112 257.693 60.8944 259.555 57.0608H269.002C267.742 61.0587 265.333 64.3446 261.773 66.9186C258.213 69.4926 253.914 70.7795 248.876 70.7795ZM248.711 35.6201C245.754 35.6201 243.207 36.469 241.072 38.1667C238.99 39.8097 237.649 42.1646 237.046 45.2315H259.801C259.144 42.0551 257.802 39.6728 255.776 38.0846C253.75 36.4416 251.395 35.6201 248.711 35.6201Z" fill="#324473"/>
<path d="M215.976 70.369C211.814 70.369 208.419 69.2189 205.79 66.9188C203.216 64.5639 201.929 61.1684 201.929 56.7324L201.929 36.1136H193.386V28.0631H201.929L201.929 17.4656H210.965L210.965 28.0631H222.713V36.1136H210.965L210.965 55.2537C210.965 57.7729 211.513 59.5802 212.608 60.6755C213.704 61.7161 215.456 62.2363 217.866 62.2363C219.837 62.2363 221.453 61.9625 222.713 61.4148V69.4654C220.741 70.0678 218.496 70.369 215.976 70.369Z" fill="#324473"/>
<path d="M181.49 19.9303C179.847 19.9303 178.423 19.3552 177.218 18.2052C176.014 17.0003 175.411 15.549 175.411 13.8513C175.411 12.2083 176.014 10.8118 177.218 9.66175C178.423 8.45691 179.847 7.85449 181.49 7.85449C183.188 7.85449 184.612 8.45691 185.762 9.66175C186.912 10.8118 187.487 12.2083 187.487 13.8513C187.487 15.549 186.912 17.0003 185.762 18.2052C184.612 19.3552 183.188 19.9303 181.49 19.9303ZM176.972 69.9585V28.0634H186.008V69.9585H176.972Z" fill="#324473"/>
<path d="M147.564 70.7795C141.375 70.7795 136.227 68.7258 132.12 64.6184C128.067 60.4563 126.041 55.3905 126.041 49.421C126.041 43.4516 128.067 38.4132 132.12 34.3058C136.227 30.1436 141.375 28.0625 147.564 28.0625C152.876 28.0625 157.394 29.5412 161.118 32.4985C164.897 35.4558 167.334 39.262 168.429 43.9171H158.9C158.079 41.6169 156.655 39.7823 154.629 38.4132C152.657 36.9893 150.302 36.2773 147.564 36.2773C143.949 36.2773 140.992 37.5095 138.692 39.974C136.392 42.4384 135.242 45.5874 135.242 49.421C135.242 53.2546 136.392 56.4036 138.692 58.8681C140.992 61.3325 143.949 62.5647 147.564 62.5647C150.302 62.5647 152.657 61.8802 154.629 60.511C156.655 59.0871 158.079 57.2251 158.9 54.9249H168.429C167.334 59.58 164.897 63.3862 161.118 66.3435C157.394 69.3009 152.876 70.7795 147.564 70.7795Z" fill="#324473"/>
</svg>
