<?xml version="1.0" standalone="no"?>
<!DOCTYPE svg PUBLIC "-//W3C//DTD SVG 1.1//EN" "http://www.w3.org/Graphics/SVG/1.1/DTD/svg11.dtd" >
<svg xmlns="http://www.w3.org/2000/svg">
<metadata>Generated by IcoMoon</metadata>
<defs>
<font id="citeck-leftmenu" horiz-adv-x="1024">
<font-face units-per-em="1024" ascent="960" descent="-64" />
<missing-glyph horiz-adv-x="1024" />
<glyph unicode="&#x20;" horiz-adv-x="512" d="" />
<glyph unicode="&#xe900;" glyph-name="cases" d="M256 755.2h-153.6c-56.554 0-102.4-45.846-102.4-102.4v-102.4c0-28.277 22.923-51.2 51.2-51.2h921.6c28.278 0 51.2 22.923 51.2 51.2v102.4c0 56.554-45.844 102.4-102.4 102.4h-153.6v51.2c0 84.831-68.767 153.6-153.6 153.6h-204.8c-84.831 0-153.6-68.769-153.6-153.6v-51.2zM358.4 806.4c0 28.277 22.923 51.2 51.2 51.2h204.8c28.278 0 51.2-22.923 51.2-51.2s-22.922-51.2-51.2-51.2h-204.8c-28.277 0-51.2 22.923-51.2 51.2zM563.2 345.6c0 28.278 22.922 51.2 51.2 51.2h358.4c28.278 0 51.2-22.922 51.2-51.2v-307.2c0-56.556-45.844-102.4-102.4-102.4h-819.2c-56.554 0-102.4 45.844-102.4 102.4v307.2c0 28.278 22.923 51.2 51.2 51.2h358.4c28.277 0 51.2-22.922 51.2-51.2v-51.2c0-28.278 22.923-51.2 51.2-51.2s51.2 22.922 51.2 51.2v51.2z" />
<glyph unicode="&#xe901;" glyph-name="more" d="M500 960c-277 0-500-223-500-500s223-500 500-500c277 0 500 223 500 500s-223 500-500 500zM267 393c-37 0-67 30-67 67s30 67 67 67 66-30 66-67c0-37-30-67-66-67zM500 393c-37 0-67 30-67 67s30 67 67 67 67-30 67-67c0-37-30-67-67-67zM733 393c-36 0-66 30-66 67s30 67 66 67 67-30 67-67c0-37-30-67-67-67z" />
<glyph unicode="&#xe902;" glyph-name="meetings" d="M512 101.069c282.772 0 512 186.532 512 416.665s-229.228 416.667-512 416.667-512-186.535-512-416.667c0-130.323 73.522-246.67 188.655-323.081 8.66-57.19 9.76-101.693-58.227-193.352-12.994-17.521-1.068-41.994 20.553-39.526 44.004 5.023 105.566 16.937 149.994 45.204 76.8 48.865 106.642 102.748 106.642 102.748 33.699-5.668 68.611-8.658 104.382-8.658zM358.4 627.2c0 28.277 22.923 51.2 51.2 51.2h204.8c28.278 0 51.2-22.923 51.2-51.2s-22.922-51.2-51.2-51.2h-204.8c-28.277 0-51.2 22.923-51.2 51.2zM409.6 473.6c-28.277 0-51.2-22.923-51.2-51.2s22.923-51.2 51.2-51.2h204.8c28.278 0 51.2 22.922 51.2 51.2s-22.922 51.2-51.2 51.2h-204.8z" />
<glyph unicode="&#xe903;" glyph-name="correspondence" d="M102.4 857.6c-56.556 0-102.4-45.85-102.4-102.4v-41.607c0-18.736 10.233-35.975 26.681-44.947l460.8-251.37c15.283-8.337 33.756-8.337 49.039 0l460.8 251.37c16.445 8.972 26.68 26.212 26.68 44.947v41.607c0 56.55-45.844 102.4-102.4 102.4h-819.2zM1024 523.426c0 19.432-20.797 31.779-37.857 22.474l-444.723-242.576c-18.34-9.999-40.507-9.999-58.845 0l-444.716 242.575c-17.059 9.305-37.859-3.042-37.859-22.474v-382.626c0-56.55 45.844-102.4 102.4-102.4h819.2c56.556 0 102.4 45.85 102.4 102.4v382.626z" />
<glyph unicode="&#xe904;" glyph-name="ord" horiz-adv-x="922" d="M358.813 447.35c0-56.499 45.962-102.477 102.475-102.477 56.498 0 102.46 45.978 102.46 102.477s-45.962 102.475-102.46 102.475c-56.513 0-102.475-45.975-102.475-102.475zM921.6 661.575c0 27.175-10.788 53.225-29.988 72.425l-196.024 196c-19.2 19.2-45.251 30-72.402 30h-520.786c-56.55 0-102.4-45.85-102.4-102.4v-819.2c0-11.648 1.95-22.851 5.537-33.3 13.813-40.197 51.963-69.1 96.863-69.1h716.8c56.55 0 102.4 45.85 102.4 102.4v623.175zM746.327 497.25c8.709 0 18.775-6.5 19.748-15.15 2.601-23.25 2.575-46.752-0.138-69.848-1.060-9.001-9.175-15.775-17.976-15.053l-3.799 0.077c-27.162 0-52.398-16.727-62.848-41.626-11.1-26.476-4.163-57.277 17.213-76.652 3.461-3.123 5.35-7.347 5.586-11.674 0.225-4.076-0.998-8.248-3.748-11.674-14.612-18.202-31.329-34.729-49.7-49.126-7.076-5.473-17.116-4.675-23.188 1.925-18.278 20.101-50.801 27.648-76.078 17.326-19-7.777-33.111-23.803-39.025-42.9-2.224-7.199-3.286-14.828-3.011-22.625 0.3-8.924-6.3-16.599-15.213-17.577-6.125-0.676-12.25-1.172-18.375-1.5-5.112-0.251-10.225-0.374-15.35-0.374-11.838 0-23.65 0.676-35.388 2.048-8.975 1.029-15.612 8.904-15.075 17.951 1.637 28.774-15.050 55.578-41.563 66.678-25.312 10.624-58.2 3.098-76.588-17.229-6.1-6.723-16.337-7.521-23.375-1.848-17.95 14.449-34.325 30.976-48.6 49.178-5.55 6.999-4.712 17.096 1.863 23.122 21.012 19.277 27.912 49.802 17.175 75.976-10.775 26.225-36.45 42.778-63.213 42.102-8.8 0-19.175 6.426-20.137 15.099-2.6 23.276-2.575 46.775 0.125 69.875 1.075 8.85 8.012 15.375 17.75 15.075 30.012 0 56.238 16.275 66.85 41.525 11.1 26.475 4.2 57.275-17.187 76.65-3.375 3.075-5.25 7.2-5.55 11.45-0.287 4.15 0.925 8.425 3.725 11.9 14.538 18.15 31.288 34.675 49.7 49.125 7.037 5.5 17.137 4.675 23.175-1.95 18.275-20.1 50.938-27.575 76.050-17.3 26.187 10.725 43.075 37.050 42.062 65.525-0.238 7.175 3.975 13.55 10.263 16.25 1.538 0.675 3.2 1.125 4.95 1.325 23.025 2.575 46.175 2.475 69.112-0.175 9.013-1.050 15.614-8.9 15.075-17.95-1.625-28.75 15.049-55.55 41.499-66.675 12.677-5.3 27.203-6.075 40.852-3 13.737 3.075 26.588 10.025 35.773 20.2 6.077 6.725 16.338 7.5 23.352 1.875 10.337-8.275 20.163-17.3 29.399-26.975 6.748-7.050 13.184-14.45 19.261-22.15 5.54-7.025 4.736-17.15-1.864-23.175-20.987-19.25-27.889-49.775-17.188-75.975 10.476-25.55 35.466-42.075 63.616-42.075z" />
<glyph unicode="&#xe905;" glyph-name="contracts" horiz-adv-x="922" d="M913.577 701.325c5.248-12.45 8.023-25.95 8.023-39.75v-623.175c0-56.55-45.85-102.4-102.4-102.4h-716.8c-44.9 0-83.050 28.902-96.863 69.1-1.225 3.548-2.25 7.199-3.075 10.926-0.75 3.323-1.325 6.697-1.737 10.148-0.475 4.024-0.725 8.1-0.725 12.227v819.2c0 56.55 45.85 102.4 102.4 102.4h520.786c27.151 0 53.202-10.8 72.402-30l196.024-196c3.876-3.875 7.398-8.025 10.573-12.4 3.215-4.45 6.052-9.125 8.504-14 1.034-2.050 1.997-4.15 2.888-6.275zM153.6 652.8c0-28.275 22.925-51.2 51.2-51.2h512c28.273 0 51.2 22.925 51.2 51.2s-22.927 51.2-51.2 51.2h-512c-28.275 0-51.2-22.925-51.2-51.2zM204.8 499.2c-28.275 0-51.2-22.925-51.2-51.2 0-28.273 22.925-51.2 51.2-51.2h512c28.273 0 51.2 22.927 51.2 51.2 0 28.275-22.927 51.2-51.2 51.2h-512zM153.6 243.2c0-28.273 22.925-51.2 51.2-51.2h153.6c14.25 0 27.138 5.827 36.412 15.201 9.138 9.247 14.788 21.975 14.788 35.999 0 5.827-0.975 11.423-2.775 16.65-2.5 7.276-6.6 13.824-11.875 19.2-3.975 4.050-8.613 7.424-13.737 9.974-6.863 3.451-14.612 5.376-22.813 5.376h-153.6c-28.275 0-51.2-22.927-51.2-51.2zM665.6 294.4c-56.55 0-102.4-45.85-102.4-102.4s45.85-102.4 102.4-102.4c56.55 0 102.4 45.85 102.4 102.4s-45.85 102.4-102.4 102.4z" />
<glyph unicode="&#xe906;" glyph-name="personal-documents" d="M102.4 857.6c-56.55 0-102.4-45.85-102.4-102.4v-614.4c0-56.55 45.85-102.4 102.4-102.4h819.2c56.55 0 102.4 45.85 102.4 102.4v614.4c0 56.55-45.85 102.4-102.4 102.4h-819.2zM358.4 465.075c-68.1 0-119.462 51.35-119.462 119.45s51.362 119.475 119.462 119.475c68.1 0 119.462-51.375 119.462-119.475s-51.362-119.45-119.462-119.45zM563.2 241.423c0-28.273-22.927-51.2-51.2-51.2h-307.2c-28.275 0-51.2 22.927-51.2 51.2v1.777c0 94.1 76.562 151.825 170.662 151.825h68.275c94.1 0 170.662-57.724 170.662-151.825v-1.777zM614.4 652.8c0 28.275 22.927 51.2 51.2 51.2h153.6c28.273 0 51.2-22.925 51.2-51.2 0-14.35-5.914-27.35-15.437-36.65-6.262-6.125-14.1-10.65-22.851-12.9-4.127-1.075-8.448-1.65-12.913-1.65h-153.6c-28.273 0-51.2 22.925-51.2 51.2zM621 473.175c-4.198-7.45-6.6-16.025-6.6-25.175 0-28.275 22.927-51.2 51.2-51.2h153.6c14.474 0 27.535 6 36.849 15.65 8.888 9.225 14.351 21.75 14.351 35.55 0 28.275-22.927 51.2-51.2 51.2h-153.6c-19.123 0-35.814-10.475-44.6-26.025z" />
<glyph unicode="&#xe907;" glyph-name="find-section" d="M567.071 527.466c-60.088 0-109.713-49.834-109.713-111.911 0-62.080 49.626-111.918 109.713-111.918 60.083 0 109.711 49.838 109.711 111.918 0 62.077-49.628 111.911-109.711 111.911zM102.4 473.6v409.6c0 28.277-22.923 51.2-51.2 51.2s-51.2-22.923-51.2-51.2v-409.6c0-84.833 68.769-153.6 153.6-153.6h51.2v-256c0-56.556 45.846-102.4 102.4-102.4h614.4c56.556 0 102.4 45.844 102.4 102.4v614.4c0 56.554-45.844 102.4-102.4 102.4h-614.4c-56.554 0-102.4-45.846-102.4-102.4v-256h-51.2c-28.277 0-51.2 22.923-51.2 51.2zM358.4 415.555c0 116.33 93.2 211.645 208.671 211.645 115.466 0 208.666-95.315 208.666-211.645 0-42.143-12.339-82.934-35.226-117.576l93.189-98.499c18.729-19.799 18.125-51.164-1.357-70.211-9.221-9.021-21.519-14.070-34.447-14.070-13.655 0-26.465 5.591-35.794 15.437l-94.254 99.62c-30.705-17.295-65.080-26.353-100.777-26.353-115.471 0-208.671 95.314-208.671 211.651z" />
<glyph unicode="&#xe908;" glyph-name="controlled" d="M512 345.575c56.556 0 102.4 45.846 102.4 102.4s-45.844 102.4-102.4 102.4c-56.554 0-102.4-45.846-102.4-102.4s45.846-102.4 102.4-102.4zM511.997 755.175c-249.063 0-419.684-165.873-492.663-253.847-25.779-31.076-25.779-75.63 0-106.706 72.978-87.974 243.6-253.848 492.663-253.848 249.060 0 419.689 165.872 492.67 253.847 25.779 31.077 25.779 75.632 0 106.708-72.98 87.975-243.61 253.846-492.67 253.846zM716.8 447.975c0-113.108-91.694-204.801-204.8-204.801-113.108 0-204.8 91.693-204.8 204.801s91.692 204.8 204.8 204.8c113.106 0 204.8-91.692 204.8-204.8z" />
<glyph unicode="&#xe909;" glyph-name="current-tasks" horiz-adv-x="819" d="M388.613 960c-27.997 0-50.693-22.696-50.693-50.693 0-0.28-0.227-0.507-0.507-0.507h-30.213c-28.277 0-51.2-22.923-51.2-51.2v-51.2c0-28.277 22.923-51.2 51.2-51.2h204.8c28.278 0 51.2 22.923 51.2 51.2v51.2c0 28.277-22.922 51.2-51.2 51.2h-30.213c-0.28 0-0.507 0.227-0.507 0.507 0 27.997-22.696 50.693-50.693 50.693h-41.974zM102.684 857.325l50.917-0.141v-51.2c0-84.831 68.769-153.6 153.6-153.6h204.799c84.833 0 153.6 68.769 153.6 153.6v51.2l50.918 0.141c56.663 0.157 102.682-45.735 102.682-102.399v-716.51c0-56.55-45.844-102.4-102.4-102.4h-614.4c-56.554 0-102.399 45.844-102.4 102.4v716.511c0.001 56.664 46.020 102.555 102.684 102.398zM409.601 447.585c-28.277 0-51.2-22.927-51.2-51.2 0-28.278 22.923-51.2 51.2-51.2h204.799c28.278 0 51.2 22.922 51.2 51.2 0 28.273-22.922 51.2-51.2 51.2h-204.799zM358.401 191.585c0 28.273 22.923 51.2 51.2 51.2h204.799c28.278 0 51.2-22.927 51.2-51.2 0-28.278-22.922-51.2-51.2-51.2h-204.799c-28.277 0-51.2 22.922-51.2 51.2zM204.801 447.585c-28.277 0-51.2-22.927-51.2-51.2 0-28.278 22.923-51.2 51.2-51.2s51.2 22.922 51.2 51.2c0 28.273-22.923 51.2-51.2 51.2zM153.601 191.585c0 28.273 22.923 51.2 51.2 51.2s51.2-22.927 51.2-51.2c0-28.278-22.923-51.2-51.2-51.2s-51.2 22.922-51.2 51.2z" />
<glyph unicode="&#xe90a;" glyph-name="subordinate-tasks" horiz-adv-x="819" d="M388.613 959.975c-27.997 0-50.693-22.696-50.693-50.693 0-0.28-0.227-0.507-0.507-0.507h-81.413c-28.277 0-51.2-22.923-51.2-51.2v-51.2c0-28.277 22.923-51.2 51.2-51.2h307.2c28.278 0 51.2 22.923 51.2 51.2v51.2c0 28.277-22.922 51.2-51.2 51.2h-81.413c-0.28 0-0.507 0.227-0.507 0.507 0 27.997-22.696 50.693-50.693 50.693h-41.974zM102.4 857.575v-51.2c0-84.831 68.769-153.6 153.6-153.6h307.2c84.833 0 153.6 68.769 153.6 153.6v51.2h51.2c28.278 0 51.2-22.923 51.2-51.2v-819.201c0-28.278-22.922-51.2-51.2-51.2h-716.8c-28.277 0-51.2 22.922-51.2 51.2v819.201c0 28.277 22.923 51.2 51.2 51.2h51.2zM290.134 430.909c0-68.096 51.37-119.47 119.466-119.47s119.465 51.374 119.465 119.47c0 68.095-51.369 119.465-119.465 119.465s-119.466-51.37-119.466-119.465zM563.2 87.798c28.278 0 51.2 22.927 51.2 51.2v1.777c0 34.125-76.559 100.623-170.666 100.623h-68.267c-94.106 0-170.666-66.499-170.666-100.623v-1.777c0-28.273 22.923-51.2 51.2-51.2h307.2z" />
<glyph unicode="&#xe90b;" glyph-name="task-statistic" d="M512 959.975c-56.556 0-102.4-45.85-102.4-102.4v-512.001c0-56.55 45.844-102.4 102.4-102.4s102.4 45.85 102.4 102.4v512.001c0 56.55-45.844 102.4-102.4 102.4zM204.8 703.975c-56.556 0-102.4-45.85-102.4-102.4v-256.001c0-56.55 45.844-102.4 102.4-102.4s102.4 45.85 102.4 102.4v256.001c0 56.55-45.844 102.4-102.4 102.4zM716.8 755.175c0 56.55 45.844 102.4 102.4 102.4s102.4-45.85 102.4-102.4v-409.601c0-56.55-45.844-102.4-102.4-102.4s-102.4 45.85-102.4 102.4v409.601zM1024 38.374c0 56.55-45.844 102.4-102.4 102.4h-819.2c-56.556 0-102.4-45.85-102.4-102.4s45.844-102.4 102.4-102.4h819.2c56.556 0 102.4 45.85 102.4 102.4z" />
<glyph unicode="&#xe90c;" glyph-name="shared-documents" d="M102.4 960c-56.55 0-102.4-45.85-102.4-102.4v-819.2c0-56.55 45.85-102.4 102.4-102.4s102.4 45.85 102.4 102.4v819.2c0 56.55-45.85 102.4-102.4 102.4zM921.626 960c56.561 0 102.374-45.85 102.374-102.4v-819.2c0-56.55-45.85-102.4-102.4-102.4h-512c-56.55 0-102.4 45.85-102.4 102.4v819.2c0 56.55 45.85 102.4 102.4 102.4h512.026zM546.135 567.45c0-68.1 51.364-119.45 119.465-119.45s119.465 51.35 119.465 119.45c0 68.1-51.364 119.475-119.465 119.475s-119.465-51.375-119.465-119.475zM819.2 139.023c28.273 0 51.2 22.927 51.2 51.2v1.777c0 94.1-76.564 151.823-170.665 151.823h-68.27c-94.1 0-170.665-57.723-170.665-151.823v-1.777c0-28.273 22.925-51.2 51.2-51.2h307.2z" />
<glyph unicode="&#xe90d;" glyph-name="pass" d="M0 755.2v-614.4c0-56.55 45.85-102.4 102.4-102.4h819.2c56.55 0 102.4 45.85 102.4 102.4v614.4c0 56.55-45.85 102.4-102.4 102.4h-819.2c-56.55 0-102.4-45.85-102.4-102.4zM153.6 499.2v204.8h716.8v-204.8h-716.8zM870.4 294.4v-102.4h-716.8v102.4h716.8z" />
<glyph unicode="&#xe90e;" glyph-name="new-section" d="M153.6 422.4h51.2v256c0 56.554 45.846 102.4 102.4 102.4h614.4c56.556 0 102.4-45.846 102.4-102.4v-614.4c0-56.556-45.844-102.4-102.4-102.4h-614.4c-56.554 0-102.4 45.844-102.4 102.4v256h-51.2c-84.831 0-153.6 68.767-153.6 153.6v409.6c0 28.277 22.923 51.2 51.2 51.2s51.2-22.923 51.2-51.2v-409.6c0-28.277 22.923-51.2 51.2-51.2zM614.4 576c-28.278 0-51.2-22.923-51.2-51.2v-102.4h-102.4c-28.277 0-51.2-22.922-51.2-51.2s22.923-51.2 51.2-51.2h102.4v-102.4c0-28.278 22.922-51.2 51.2-51.2s51.2 22.922 51.2 51.2v102.4h102.4c28.278 0 51.2 22.922 51.2 51.2s-22.922 51.2-51.2 51.2h-102.4v102.4c0 28.277-22.922 51.2-51.2 51.2z" />
<glyph unicode="&#xe90f;" glyph-name="organizational-structure" d="M716.8 755.2c0-95.429-65.27-175.613-153.6-198.348v-108.852h204.8c84.833 0 153.6-68.767 153.6-153.6v-59.94c59.658-21.084 102.4-77.983 102.4-144.86 0-84.833-68.767-153.6-153.6-153.6s-153.6 68.767-153.6 153.6c0 66.877 42.742 123.776 102.4 144.86v59.94c0 28.278-22.922 51.2-51.2 51.2h-204.8v-111.14c59.658-21.084 102.4-77.983 102.4-144.86 0-84.833-68.767-153.6-153.6-153.6-84.831 0-153.6 68.767-153.6 153.6 0 66.877 42.742 123.776 102.4 144.86v111.14h-204.8c-28.277 0-51.2-22.922-51.2-51.2v-59.94c59.658-21.084 102.4-77.983 102.4-144.86 0-84.833-68.769-153.6-153.6-153.6s-153.6 68.767-153.6 153.6c0 66.877 42.742 123.776 102.4 144.86v59.94c0 84.833 68.769 153.6 153.6 153.6h204.8v108.852c-88.332 22.735-153.6 102.919-153.6 198.348 0 113.108 91.692 204.8 204.8 204.8 113.106 0 204.8-91.692 204.8-204.8z" />
<glyph unicode="&#xe910;" glyph-name="running-processes" d="M778.813 943.275c22.313 22.3 58.46 22.3 80.773 0l147.686-147.7c22.303-22.3 22.303-58.45 0-80.75l-136.873-136.875v-238.801c88.335-22.723 153.6-102.922 153.6-198.349 0-113.101-91.689-204.8-204.8-204.8s-204.8 91.699-204.8 204.8c0 95.427 65.265 175.626 153.6 198.349v238.801l-126.049 126.050h-238.801c-18.525-71.975-75.175-128.625-147.15-147.15v-211.25h102.4c28.275 0 51.2-22.927 51.2-51.2v-307.2c0-28.273-22.925-51.2-51.2-51.2h-307.2c-28.275 0-51.2 22.927-51.2 51.2v307.2c0 28.273 22.925 51.2 51.2 51.2h102.4v211.25c-88.337 22.725-153.6 102.925-153.6 198.35 0 113.1 91.687 204.8 204.8 204.8 95.437 0 175.612-65.275 198.35-153.6h238.801l136.863 136.875zM819.2 243.2c-56.55 0-102.4-45.85-102.4-102.4s45.85-102.4 102.4-102.4c56.55 0 102.4 45.85 102.4 102.4s-45.85 102.4-102.4 102.4zM204.8 857.6c56.55 0 102.4-45.85 102.4-102.4s-45.85-102.4-102.4-102.4c-56.55 0-102.4 45.85-102.4 102.4s45.85 102.4 102.4 102.4z" />
<glyph unicode="&#xe911;" glyph-name="completed-processes" d="M403.15 806.4c-22.737 88.325-102.913 153.6-198.35 153.6-113.113 0-204.8-91.7-204.8-204.8 0-95.425 65.263-175.625 153.6-198.35v-108.85h-51.2c-56.55 0-102.4-45.85-102.4-102.4v-307.2c0-56.55 45.85-102.4 102.4-102.4h819.2c56.55 0 102.4 45.85 102.4 102.4v307.2c0 56.55-45.85 102.4-102.4 102.4h-665.6v108.85c71.975 18.525 128.625 75.175 147.15 147.15h238.801l136.863-136.875c22.313-22.3 58.46-22.3 80.773 0l147.686 147.7c22.303 22.3 22.303 58.45 0 80.75l-147.686 147.7c-22.313 22.3-58.46 22.3-80.773 0l-136.863-136.875h-238.801zM204.8 652.8c56.55 0 102.4 45.85 102.4 102.4s-45.85 102.4-102.4 102.4c-56.55 0-102.4-45.85-102.4-102.4s45.85-102.4 102.4-102.4zM706.186 258.202l-194.186-194.202c-20-19.999-52.412-19.999-72.413 0l-117.387 112.998c-20 20.004-20 52.429 0 72.402 19.987 19.999 52.412 19.999 72.4 0l81.2-76.8 157.974 157.998c19.999 20.004 52.413 20.004 72.412 0 19.999-19.999 19.999-52.398 0-72.397z" />
<glyph unicode="&#xe912;" glyph-name="sections" d="M153.6 422.4c-28.277 0-51.2 22.923-51.2 51.2v409.6c0 28.277-22.923 51.2-51.2 51.2s-51.2-22.923-51.2-51.2v-409.6c0-84.833 68.769-153.6 153.6-153.6h51.2v-256c0-56.556 45.846-102.4 102.4-102.4h614.4c56.556 0 102.4 45.844 102.4 102.4v614.4c0 56.554-45.844 102.4-102.4 102.4h-614.4c-56.554 0-102.4-45.846-102.4-102.4v-256h-51.2z" />
<glyph unicode="&#xe913;" glyph-name="files" horiz-adv-x="973" d="M963.692 703.8c5.944-13.15 9.108-27.525 9.108-42.225v-367.175c0-56.55-45.844-102.4-102.4-102.4-28.278 0-51.2 22.922-51.2 51.2v162.376c0 54.324-21.576 106.424-59.986 144.824l-196.014 196.025c-38.405 38.4-90.5 59.975-144.813 59.975h-111.187c-28.277 0-51.2 22.923-51.2 51.2 0 56.55 45.844 102.4 102.4 102.4h315.986c27.156 0 53.202-10.8 72.407-30l196.014-196c8.812-8.8 15.852-19.050 20.884-30.2zM711.281 438.748c3.62-10.573 5.519-21.775 5.519-33.172v-367.176c0-56.55-45.844-102.4-102.4-102.4h-512c-44.9 0-83.050 28.902-96.869 69.1-3.587 10.45-5.531 21.652-5.531 33.3v563.2c0 56.55 45.844 102.4 102.4 102.4h315.987c27.156 0 53.2-10.8 72.407-30l196.013-196c11.151-11.15 19.461-24.6 24.474-39.252z" />
<glyph unicode="&#xe914;" glyph-name="data-lists" horiz-adv-x="819" d="M0 857.6c0 56.55 52.393 102.4 117.028 102.4h585.144c64.635 0 117.028-45.85 117.028-102.4v-563.2c0-28.278-22.922-51.2-51.2-51.2v-204.8c28.278 0 51.2-22.922 51.2-51.2s-22.922-51.2-51.2-51.2h-563.2c-113.108 0-204.8 91.694-204.8 204.8v716.8zM665.6 243.2h-460.8c-56.554 0-102.4-45.844-102.4-102.4s45.846-102.4 102.4-102.4h460.8v51.2h-460.8c-28.277 0-51.2 22.922-51.2 51.2s22.923 51.2 51.2 51.2h460.8v51.2zM204.8 652.8c0 28.277 22.923 51.2 51.2 51.2h307.2c28.278 0 51.2-22.923 51.2-51.2s-22.922-51.2-51.2-51.2h-307.2c-28.277 0-51.2 22.923-51.2 51.2z" />
<glyph unicode="&#xe915;" glyph-name="new-tasks" d="M1017.416 401.705l-75.249 121.093c-5.965 9.601-7.972 21.193-5.612 32.277l29.875 139.89c4.659 21.801-7.777 43.622-28.718 50.437l-134.395 43.708c-10.655 3.467-19.543 11.030-24.755 21.063l-65.782 126.629c-10.25 19.741-33.603 28.356-53.965 19.926l-130.668-54.132c-10.353-4.279-21.957-4.279-32.311 0l-130.645 54.122c-20.364 8.43-43.719-0.185-53.976-19.926l-65.782-126.617c-5.214-10.033-14.103-17.596-24.755-21.063l-134.394-43.708c-20.952-6.815-33.377-28.637-28.719-50.437l29.862-139.89c2.372-11.084 0.353-22.678-5.609-32.277l-75.238-121.095c-11.731-18.872-7.404-43.684 9.979-57.359l111.542-87.69c8.846-6.953 14.647-17.142 16.165-28.385l19.114-141.809c2.97-22.103 22.020-38.303 43.987-37.437l141.030 5.54c11.175 0.44 22.073-3.589 30.375-11.203l104.511-96.174c16.293-14.981 41.156-14.981 57.438 0l104.525 96.174c8.279 7.624 19.185 11.643 30.372 11.203l141.020-5.54c21.985-0.865 41.016 15.345 43.996 37.437l19.113 141.809c1.521 11.244 7.322 21.432 16.159 28.385l111.539 87.69c17.382 13.676 21.699 38.487 9.969 57.359z" />
<glyph unicode="&#xe916;" glyph-name="content" d="M102.4 704c0 28.277 22.923 51.2 51.2 51.2h716.8c28.278 0 51.2-22.923 51.2-51.2s-22.922-51.2-51.2-51.2h-716.8c-28.277 0-51.2 22.923-51.2 51.2zM204.8 908.8c0 28.277 22.923 51.2 51.2 51.2h512c28.278 0 51.2-22.923 51.2-51.2s-22.922-51.2-51.2-51.2h-512c-28.277 0-51.2 22.923-51.2 51.2zM102.4 550.4h819.2c56.55 0 102.4-45.85 102.4-102.4v-409.6c0-56.55-45.85-102.4-102.4-102.4h-819.2c-56.55 0-102.4 45.85-102.4 102.4v409.6c0 56.55 45.85 102.4 102.4 102.4zM409.6 345.6c0 28.273-22.925 51.2-51.2 51.2s-51.2-22.927-51.2-51.2v-102.4c0-28.273 22.925-51.2 51.2-51.2h307.2c28.273 0 51.2 22.927 51.2 51.2v102.4c0 28.273-22.927 51.2-51.2 51.2s-51.2-22.927-51.2-51.2v-51.2h-204.8v51.2z" />
</font>
</defs>
</svg>
