<?xml version="1.0" standalone="no"?>
<!DOCTYPE svg PUBLIC "-//W3C//DTD SVG 1.1//EN" "http://www.w3.org/Graphics/SVG/1.1/DTD/svg11.dtd" >
<svg xmlns="http://www.w3.org/2000/svg">
<metadata>Generated by IcoMoon</metadata>
<defs>
<font id="citeck-leftmenu" horiz-adv-x="1024">
<font-face units-per-em="1024" ascent="960" descent="-64" />
<missing-glyph horiz-adv-x="1024" />
<glyph unicode="&#x20;" horiz-adv-x="512" d="" />
<glyph unicode="&#x2689;" glyph-name="more" d="M500 950.857c-277 0-500-223-500-500s223-500 500-500c277 0 500 223 500 500s-223 500-500 500zM267 383.857c-37 0-67 30-67 67s30 67 67 67 66-30 66-67c0-37-30-67-66-67zM500 383.857c-37 0-67 30-67 67s30 67 67 67 67-30 67-67c0-37-30-67-67-67zM733 383.857c-36 0-66 30-66 67s30 67 66 67 67-30 67-67c0-37-30-67-67-67z" />
<glyph unicode="&#xe900;" glyph-name="cases" d="M256 746.057h-153.6c-56.554 0-102.4-45.846-102.4-102.4v-102.4c0-28.277 22.923-51.2 51.2-51.2h921.6c28.278 0 51.2 22.923 51.2 51.2v102.4c0 56.554-45.844 102.4-102.4 102.4h-153.6v51.2c0 84.831-68.767 153.6-153.6 153.6h-204.8c-84.831 0-153.6-68.769-153.6-153.6v-51.2zM358.4 797.257c0 28.277 22.923 51.2 51.2 51.2h204.8c28.278 0 51.2-22.923 51.2-51.2s-22.922-51.2-51.2-51.2h-204.8c-28.277 0-51.2 22.923-51.2 51.2zM563.2 336.457c0 28.278 22.922 51.2 51.2 51.2h358.4c28.278 0 51.2-22.922 51.2-51.2v-307.2c0-56.556-45.844-102.4-102.4-102.4h-819.2c-56.554 0-102.4 45.844-102.4 102.4v307.2c0 28.278 22.923 51.2 51.2 51.2h358.4c28.277 0 51.2-22.922 51.2-51.2v-51.2c0-28.278 22.923-51.2 51.2-51.2s51.2 22.922 51.2 51.2v51.2z" />
<glyph unicode="&#xe902;" glyph-name="meetings" d="M512 91.926c282.772 0 512 186.532 512 416.665s-229.228 416.667-512 416.667-512-186.535-512-416.667c0-130.323 73.522-246.67 188.655-323.081 8.66-57.19 9.76-101.693-58.227-193.352-12.994-17.521-1.068-41.994 20.553-39.526 44.004 5.023 105.566 16.937 149.994 45.204 76.8 48.865 106.642 102.748 106.642 102.748 33.699-5.668 68.611-8.658 104.382-8.658zM358.4 618.057c0 28.277 22.923 51.2 51.2 51.2h204.8c28.278 0 51.2-22.923 51.2-51.2s-22.922-51.2-51.2-51.2h-204.8c-28.277 0-51.2 22.923-51.2 51.2zM409.6 464.457c-28.277 0-51.2-22.923-51.2-51.2s22.923-51.2 51.2-51.2h204.8c28.278 0 51.2 22.922 51.2 51.2s-22.922 51.2-51.2 51.2h-204.8z" />
<glyph unicode="&#xe903;" glyph-name="correspondence" d="M102.4 848.457c-56.556 0-102.4-45.85-102.4-102.4v-41.607c0-18.736 10.233-35.975 26.681-44.947l460.8-251.37c15.283-8.337 33.756-8.337 49.039 0l460.8 251.37c16.445 8.972 26.68 26.212 26.68 44.947v41.607c0 56.55-45.844 102.4-102.4 102.4h-819.2zM1024 514.283c0 19.432-20.797 31.779-37.857 22.474l-444.723-242.576c-18.34-9.999-40.507-9.999-58.845 0l-444.716 242.575c-17.059 9.305-37.859-3.042-37.859-22.474v-382.626c0-56.55 45.844-102.4 102.4-102.4h819.2c56.556 0 102.4 45.85 102.4 102.4v382.626z" />
<glyph unicode="&#xe904;" glyph-name="ord" horiz-adv-x="922" d="M358.813 438.207c0-56.499 45.962-102.477 102.475-102.477 56.498 0 102.46 45.978 102.46 102.477s-45.962 102.475-102.46 102.475c-56.513 0-102.475-45.975-102.475-102.475zM921.6 652.432c0 27.175-10.788 53.225-29.988 72.425l-196.024 196c-19.2 19.2-45.251 30-72.402 30h-520.786c-56.55 0-102.4-45.85-102.4-102.4v-819.2c0-11.648 1.95-22.851 5.537-33.3 13.813-40.197 51.963-69.1 96.863-69.1h716.8c56.55 0 102.4 45.85 102.4 102.4v623.175zM746.327 488.107c8.709 0 18.775-6.5 19.748-15.15 2.601-23.25 2.575-46.752-0.138-69.848-1.060-9.001-9.175-15.775-17.976-15.053l-3.799 0.077c-27.162 0-52.398-16.727-62.848-41.626-11.1-26.476-4.163-57.277 17.213-76.652 3.461-3.123 5.35-7.347 5.586-11.674 0.225-4.076-0.998-8.248-3.748-11.674-14.612-18.202-31.329-34.729-49.7-49.126-7.076-5.473-17.116-4.675-23.188 1.925-18.278 20.101-50.801 27.648-76.078 17.326-19-7.777-33.111-23.803-39.025-42.9-2.224-7.199-3.286-14.828-3.011-22.625 0.3-8.924-6.3-16.599-15.213-17.577-6.125-0.676-12.25-1.172-18.375-1.5-5.112-0.251-10.225-0.374-15.35-0.374-11.838 0-23.65 0.676-35.388 2.048-8.975 1.029-15.612 8.904-15.075 17.951 1.637 28.774-15.050 55.578-41.563 66.678-25.312 10.624-58.2 3.098-76.588-17.229-6.1-6.723-16.337-7.521-23.375-1.848-17.95 14.449-34.325 30.976-48.6 49.178-5.55 6.999-4.712 17.096 1.863 23.122 21.012 19.277 27.912 49.802 17.175 75.976-10.775 26.225-36.45 42.778-63.213 42.102-8.8 0-19.175 6.426-20.137 15.099-2.6 23.276-2.575 46.775 0.125 69.875 1.075 8.85 8.012 15.375 17.75 15.075 30.012 0 56.238 16.275 66.85 41.525 11.1 26.475 4.2 57.275-17.187 76.65-3.375 3.075-5.25 7.2-5.55 11.45-0.287 4.15 0.925 8.425 3.725 11.9 14.538 18.15 31.288 34.675 49.7 49.125 7.037 5.5 17.137 4.675 23.175-1.95 18.275-20.1 50.938-27.575 76.050-17.3 26.187 10.725 43.075 37.050 42.062 65.525-0.238 7.175 3.975 13.55 10.263 16.25 1.538 0.675 3.2 1.125 4.95 1.325 23.025 2.575 46.175 2.475 69.112-0.175 9.013-1.050 15.614-8.9 15.075-17.95-1.625-28.75 15.049-55.55 41.499-66.675 12.677-5.3 27.203-6.075 40.852-3 13.737 3.075 26.588 10.025 35.773 20.2 6.077 6.725 16.338 7.5 23.352 1.875 10.337-8.275 20.163-17.3 29.399-26.975 6.748-7.050 13.184-14.45 19.261-22.15 5.54-7.025 4.736-17.15-1.864-23.175-20.987-19.25-27.889-49.775-17.188-75.975 10.476-25.55 35.466-42.075 63.616-42.075z" />
<glyph unicode="&#xe905;" glyph-name="contracts" horiz-adv-x="922" d="M913.577 692.182c5.248-12.45 8.023-25.95 8.023-39.75v-623.175c0-56.55-45.85-102.4-102.4-102.4h-716.8c-44.9 0-83.050 28.902-96.863 69.1-1.225 3.548-2.25 7.199-3.075 10.926-0.75 3.323-1.325 6.697-1.737 10.148-0.475 4.024-0.725 8.1-0.725 12.227v819.2c0 56.55 45.85 102.4 102.4 102.4h520.786c27.151 0 53.202-10.8 72.402-30l196.024-196c3.876-3.875 7.398-8.025 10.573-12.4 3.215-4.45 6.052-9.125 8.504-14 1.034-2.050 1.997-4.15 2.888-6.275zM153.6 643.657c0-28.275 22.925-51.2 51.2-51.2h512c28.273 0 51.2 22.925 51.2 51.2s-22.927 51.2-51.2 51.2h-512c-28.275 0-51.2-22.925-51.2-51.2zM204.8 490.057c-28.275 0-51.2-22.925-51.2-51.2 0-28.273 22.925-51.2 51.2-51.2h512c28.273 0 51.2 22.927 51.2 51.2 0 28.275-22.927 51.2-51.2 51.2h-512zM153.6 234.057c0-28.273 22.925-51.2 51.2-51.2h153.6c14.25 0 27.138 5.827 36.412 15.201 9.138 9.247 14.788 21.975 14.788 35.999 0 5.827-0.975 11.423-2.775 16.65-2.5 7.276-6.6 13.824-11.875 19.2-3.975 4.050-8.613 7.424-13.737 9.974-6.863 3.451-14.612 5.376-22.813 5.376h-153.6c-28.275 0-51.2-22.927-51.2-51.2zM665.6 285.257c-56.55 0-102.4-45.85-102.4-102.4s45.85-102.4 102.4-102.4c56.55 0 102.4 45.85 102.4 102.4s-45.85 102.4-102.4 102.4z" />
<glyph unicode="&#xe906;" glyph-name="personal-documents" d="M102.4 848.457c-56.55 0-102.4-45.85-102.4-102.4v-614.4c0-56.55 45.85-102.4 102.4-102.4h819.2c56.55 0 102.4 45.85 102.4 102.4v614.4c0 56.55-45.85 102.4-102.4 102.4h-819.2zM358.4 455.932c-68.1 0-119.462 51.35-119.462 119.45s51.362 119.475 119.462 119.475c68.1 0 119.462-51.375 119.462-119.475s-51.362-119.45-119.462-119.45zM563.2 232.28c0-28.273-22.927-51.2-51.2-51.2h-307.2c-28.275 0-51.2 22.927-51.2 51.2v1.777c0 94.1 76.562 151.825 170.662 151.825h68.275c94.1 0 170.662-57.724 170.662-151.825v-1.777zM614.4 643.657c0 28.275 22.927 51.2 51.2 51.2h153.6c28.273 0 51.2-22.925 51.2-51.2 0-14.35-5.914-27.35-15.437-36.65-6.262-6.125-14.1-10.65-22.851-12.9-4.127-1.075-8.448-1.65-12.913-1.65h-153.6c-28.273 0-51.2 22.925-51.2 51.2zM621 464.032c-4.198-7.45-6.6-16.025-6.6-25.175 0-28.275 22.927-51.2 51.2-51.2h153.6c14.474 0 27.535 6 36.849 15.65 8.888 9.225 14.351 21.75 14.351 35.55 0 28.275-22.927 51.2-51.2 51.2h-153.6c-19.123 0-35.814-10.475-44.6-26.025z" />
<glyph unicode="&#xe907;" glyph-name="find-section" d="M567.071 518.323c-60.088 0-109.713-49.834-109.713-111.911 0-62.080 49.626-111.918 109.713-111.918 60.083 0 109.711 49.838 109.711 111.918 0 62.077-49.628 111.911-109.711 111.911zM102.4 464.457v409.6c0 28.277-22.923 51.2-51.2 51.2s-51.2-22.923-51.2-51.2v-409.6c0-84.833 68.769-153.6 153.6-153.6h51.2v-256c0-56.556 45.846-102.4 102.4-102.4h614.4c56.556 0 102.4 45.844 102.4 102.4v614.4c0 56.554-45.844 102.4-102.4 102.4h-614.4c-56.554 0-102.4-45.846-102.4-102.4v-256h-51.2c-28.277 0-51.2 22.923-51.2 51.2zM358.4 406.412c0 116.33 93.2 211.645 208.671 211.645 115.466 0 208.666-95.315 208.666-211.645 0-42.143-12.339-82.934-35.226-117.576l93.189-98.499c18.729-19.799 18.125-51.164-1.357-70.211-9.221-9.021-21.519-14.070-34.447-14.070-13.655 0-26.465 5.591-35.794 15.437l-94.254 99.62c-30.705-17.295-65.080-26.353-100.777-26.353-115.471 0-208.671 95.314-208.671 211.651z" />
<glyph unicode="&#xe908;" glyph-name="controlled" d="M512 336.432c56.556 0 102.4 45.846 102.4 102.4s-45.844 102.4-102.4 102.4c-56.554 0-102.4-45.846-102.4-102.4s45.846-102.4 102.4-102.4zM511.997 746.032c-249.063 0-419.684-165.873-492.663-253.847-25.779-31.076-25.779-75.63 0-106.706 72.978-87.974 243.6-253.848 492.663-253.848 249.060 0 419.689 165.872 492.67 253.847 25.779 31.077 25.779 75.632 0 106.708-72.98 87.975-243.61 253.846-492.67 253.846zM716.8 438.832c0-113.108-91.694-204.801-204.8-204.801-113.108 0-204.8 91.693-204.8 204.801s91.692 204.8 204.8 204.8c113.106 0 204.8-91.692 204.8-204.8z" />
<glyph unicode="&#xe909;" glyph-name="current-tasks" horiz-adv-x="819" d="M388.613 950.857c-27.997 0-50.693-22.696-50.693-50.693 0-0.28-0.227-0.507-0.507-0.507h-30.213c-28.277 0-51.2-22.923-51.2-51.2v-51.2c0-28.277 22.923-51.2 51.2-51.2h204.8c28.278 0 51.2 22.923 51.2 51.2v51.2c0 28.277-22.922 51.2-51.2 51.2h-30.213c-0.28 0-0.507 0.227-0.507 0.507 0 27.997-22.696 50.693-50.693 50.693h-41.974zM102.684 848.182l50.917-0.141v-51.2c0-84.831 68.769-153.6 153.6-153.6h204.799c84.833 0 153.6 68.769 153.6 153.6v51.2l50.918 0.141c56.663 0.157 102.682-45.735 102.682-102.399v-716.51c0-56.55-45.844-102.4-102.4-102.4h-614.4c-56.554 0-102.399 45.844-102.4 102.4v716.511c0.001 56.664 46.020 102.555 102.684 102.398zM409.601 438.442c-28.277 0-51.2-22.927-51.2-51.2 0-28.278 22.923-51.2 51.2-51.2h204.799c28.278 0 51.2 22.922 51.2 51.2 0 28.273-22.922 51.2-51.2 51.2h-204.799zM358.401 182.442c0 28.273 22.923 51.2 51.2 51.2h204.799c28.278 0 51.2-22.927 51.2-51.2 0-28.278-22.922-51.2-51.2-51.2h-204.799c-28.277 0-51.2 22.922-51.2 51.2zM204.801 438.442c-28.277 0-51.2-22.927-51.2-51.2 0-28.278 22.923-51.2 51.2-51.2s51.2 22.922 51.2 51.2c0 28.273-22.923 51.2-51.2 51.2zM153.601 182.442c0 28.273 22.923 51.2 51.2 51.2s51.2-22.927 51.2-51.2c0-28.278-22.923-51.2-51.2-51.2s-51.2 22.922-51.2 51.2z" />
<glyph unicode="&#xe90a;" glyph-name="subordinate-tasks" horiz-adv-x="819" d="M388.613 950.832c-27.997 0-50.693-22.696-50.693-50.693 0-0.28-0.227-0.507-0.507-0.507h-81.413c-28.277 0-51.2-22.923-51.2-51.2v-51.2c0-28.277 22.923-51.2 51.2-51.2h307.2c28.278 0 51.2 22.923 51.2 51.2v51.2c0 28.277-22.922 51.2-51.2 51.2h-81.413c-0.28 0-0.507 0.227-0.507 0.507 0 27.997-22.696 50.693-50.693 50.693h-41.974zM102.4 848.432v-51.2c0-84.831 68.769-153.6 153.6-153.6h307.2c84.833 0 153.6 68.769 153.6 153.6v51.2h51.2c28.278 0 51.2-22.923 51.2-51.2v-819.201c0-28.278-22.922-51.2-51.2-51.2h-716.8c-28.277 0-51.2 22.922-51.2 51.2v819.201c0 28.277 22.923 51.2 51.2 51.2h51.2zM290.134 421.766c0-68.096 51.37-119.47 119.466-119.47s119.465 51.374 119.465 119.47c0 68.095-51.369 119.465-119.465 119.465s-119.466-51.37-119.466-119.465zM563.2 78.655c28.278 0 51.2 22.927 51.2 51.2v1.777c0 34.125-76.559 100.623-170.666 100.623h-68.267c-94.106 0-170.666-66.499-170.666-100.623v-1.777c0-28.273 22.923-51.2 51.2-51.2h307.2z" />
<glyph unicode="&#xe90b;" glyph-name="task-statistic" d="M512 950.832c-56.556 0-102.4-45.85-102.4-102.4v-512.001c0-56.55 45.844-102.4 102.4-102.4s102.4 45.85 102.4 102.4v512.001c0 56.55-45.844 102.4-102.4 102.4zM204.8 694.832c-56.556 0-102.4-45.85-102.4-102.4v-256.001c0-56.55 45.844-102.4 102.4-102.4s102.4 45.85 102.4 102.4v256.001c0 56.55-45.844 102.4-102.4 102.4zM716.8 746.032c0 56.55 45.844 102.4 102.4 102.4s102.4-45.85 102.4-102.4v-409.601c0-56.55-45.844-102.4-102.4-102.4s-102.4 45.85-102.4 102.4v409.601zM1024 29.231c0 56.55-45.844 102.4-102.4 102.4h-819.2c-56.556 0-102.4-45.85-102.4-102.4s45.844-102.4 102.4-102.4h819.2c56.556 0 102.4 45.85 102.4 102.4z" />
<glyph unicode="&#xe90c;" glyph-name="shared-documents" d="M102.4 950.857c-56.55 0-102.4-45.85-102.4-102.4v-819.2c0-56.55 45.85-102.4 102.4-102.4s102.4 45.85 102.4 102.4v819.2c0 56.55-45.85 102.4-102.4 102.4zM921.626 950.857c56.561 0 102.374-45.85 102.374-102.4v-819.2c0-56.55-45.85-102.4-102.4-102.4h-512c-56.55 0-102.4 45.85-102.4 102.4v819.2c0 56.55 45.85 102.4 102.4 102.4h512.026zM546.135 558.307c0-68.1 51.364-119.45 119.465-119.45s119.465 51.35 119.465 119.45c0 68.1-51.364 119.475-119.465 119.475s-119.465-51.375-119.465-119.475zM819.2 129.88c28.273 0 51.2 22.927 51.2 51.2v1.777c0 94.1-76.564 151.823-170.665 151.823h-68.27c-94.1 0-170.665-57.723-170.665-151.823v-1.777c0-28.273 22.925-51.2 51.2-51.2h307.2z" />
<glyph unicode="&#xe90d;" glyph-name="pass" d="M0 746.057v-614.4c0-56.55 45.85-102.4 102.4-102.4h819.2c56.55 0 102.4 45.85 102.4 102.4v614.4c0 56.55-45.85 102.4-102.4 102.4h-819.2c-56.55 0-102.4-45.85-102.4-102.4zM153.6 490.057v204.8h716.8v-204.8h-716.8zM870.4 285.257v-102.4h-716.8v102.4h716.8z" />
<glyph unicode="&#xe90e;" glyph-name="new-section" d="M153.6 413.257h51.2v256c0 56.554 45.846 102.4 102.4 102.4h614.4c56.556 0 102.4-45.846 102.4-102.4v-614.4c0-56.556-45.844-102.4-102.4-102.4h-614.4c-56.554 0-102.4 45.844-102.4 102.4v256h-51.2c-84.831 0-153.6 68.767-153.6 153.6v409.6c0 28.277 22.923 51.2 51.2 51.2s51.2-22.923 51.2-51.2v-409.6c0-28.277 22.923-51.2 51.2-51.2zM614.4 566.857c-28.278 0-51.2-22.923-51.2-51.2v-102.4h-102.4c-28.277 0-51.2-22.922-51.2-51.2s22.923-51.2 51.2-51.2h102.4v-102.4c0-28.278 22.922-51.2 51.2-51.2s51.2 22.922 51.2 51.2v102.4h102.4c28.278 0 51.2 22.922 51.2 51.2s-22.922 51.2-51.2 51.2h-102.4v102.4c0 28.277-22.922 51.2-51.2 51.2z" />
<glyph unicode="&#xe90f;" glyph-name="organizational-structure" d="M716.8 746.057c0-95.429-65.27-175.613-153.6-198.348v-108.852h204.8c84.833 0 153.6-68.767 153.6-153.6v-59.94c59.658-21.084 102.4-77.983 102.4-144.86 0-84.833-68.767-153.6-153.6-153.6s-153.6 68.767-153.6 153.6c0 66.877 42.742 123.776 102.4 144.86v59.94c0 28.278-22.922 51.2-51.2 51.2h-204.8v-111.14c59.658-21.084 102.4-77.983 102.4-144.86 0-84.833-68.767-153.6-153.6-153.6-84.831 0-153.6 68.767-153.6 153.6 0 66.877 42.742 123.776 102.4 144.86v111.14h-204.8c-28.277 0-51.2-22.922-51.2-51.2v-59.94c59.658-21.084 102.4-77.983 102.4-144.86 0-84.833-68.769-153.6-153.6-153.6s-153.6 68.767-153.6 153.6c0 66.877 42.742 123.776 102.4 144.86v59.94c0 84.833 68.769 153.6 153.6 153.6h204.8v108.852c-88.332 22.735-153.6 102.919-153.6 198.348 0 113.108 91.692 204.8 204.8 204.8 113.106 0 204.8-91.692 204.8-204.8z" />
<glyph unicode="&#xe910;" glyph-name="running-processes" d="M778.813 934.132c22.313 22.3 58.46 22.3 80.773 0l147.686-147.7c22.303-22.3 22.303-58.45 0-80.75l-136.873-136.875v-238.801c88.335-22.723 153.6-102.922 153.6-198.349 0-113.101-91.689-204.8-204.8-204.8s-204.8 91.699-204.8 204.8c0 95.427 65.265 175.626 153.6 198.349v238.801l-126.049 126.050h-238.801c-18.525-71.975-75.175-128.625-147.15-147.15v-211.25h102.4c28.275 0 51.2-22.927 51.2-51.2v-307.2c0-28.273-22.925-51.2-51.2-51.2h-307.2c-28.275 0-51.2 22.927-51.2 51.2v307.2c0 28.273 22.925 51.2 51.2 51.2h102.4v211.25c-88.337 22.725-153.6 102.925-153.6 198.35 0 113.1 91.687 204.8 204.8 204.8 95.437 0 175.612-65.275 198.35-153.6h238.801l136.863 136.875zM819.2 234.057c-56.55 0-102.4-45.85-102.4-102.4s45.85-102.4 102.4-102.4c56.55 0 102.4 45.85 102.4 102.4s-45.85 102.4-102.4 102.4zM204.8 848.457c56.55 0 102.4-45.85 102.4-102.4s-45.85-102.4-102.4-102.4c-56.55 0-102.4 45.85-102.4 102.4s45.85 102.4 102.4 102.4z" />
<glyph unicode="&#xe911;" glyph-name="completed-processes" d="M403.15 797.257c-22.737 88.325-102.913 153.6-198.35 153.6-113.113 0-204.8-91.7-204.8-204.8 0-95.425 65.263-175.625 153.6-198.35v-108.85h-51.2c-56.55 0-102.4-45.85-102.4-102.4v-307.2c0-56.55 45.85-102.4 102.4-102.4h819.2c56.55 0 102.4 45.85 102.4 102.4v307.2c0 56.55-45.85 102.4-102.4 102.4h-665.6v108.85c71.975 18.525 128.625 75.175 147.15 147.15h238.801l136.863-136.875c22.313-22.3 58.46-22.3 80.773 0l147.686 147.7c22.303 22.3 22.303 58.45 0 80.75l-147.686 147.7c-22.313 22.3-58.46 22.3-80.773 0l-136.863-136.875h-238.801zM204.8 643.657c56.55 0 102.4 45.85 102.4 102.4s-45.85 102.4-102.4 102.4c-56.55 0-102.4-45.85-102.4-102.4s45.85-102.4 102.4-102.4zM706.186 249.059l-194.186-194.202c-20-19.999-52.412-19.999-72.413 0l-117.387 112.998c-20 20.004-20 52.429 0 72.402 19.987 19.999 52.412 19.999 72.4 0l81.2-76.8 157.974 157.998c19.999 20.004 52.413 20.004 72.412 0 19.999-19.999 19.999-52.398 0-72.397z" />
<glyph unicode="&#xe912;" glyph-name="sections" d="M153.6 413.257c-28.277 0-51.2 22.923-51.2 51.2v409.6c0 28.277-22.923 51.2-51.2 51.2s-51.2-22.923-51.2-51.2v-409.6c0-84.833 68.769-153.6 153.6-153.6h51.2v-256c0-56.556 45.846-102.4 102.4-102.4h614.4c56.556 0 102.4 45.844 102.4 102.4v614.4c0 56.554-45.844 102.4-102.4 102.4h-614.4c-56.554 0-102.4-45.846-102.4-102.4v-256h-51.2z" />
<glyph unicode="&#xe914;" glyph-name="data-lists" horiz-adv-x="819" d="M0 848.457c0 56.55 52.393 102.4 117.028 102.4h585.144c64.635 0 117.028-45.85 117.028-102.4v-563.2c0-28.278-22.922-51.2-51.2-51.2v-204.8c28.278 0 51.2-22.922 51.2-51.2s-22.922-51.2-51.2-51.2h-563.2c-113.108 0-204.8 91.694-204.8 204.8v716.8zM665.6 234.057h-460.8c-56.554 0-102.4-45.844-102.4-102.4s45.846-102.4 102.4-102.4h460.8v51.2h-460.8c-28.277 0-51.2 22.922-51.2 51.2s22.923 51.2 51.2 51.2h460.8v51.2zM204.8 643.657c0 28.277 22.923 51.2 51.2 51.2h307.2c28.278 0 51.2-22.923 51.2-51.2s-22.922-51.2-51.2-51.2h-307.2c-28.277 0-51.2 22.923-51.2 51.2z" />
<glyph unicode="&#xe915;" glyph-name="new-tasks" d="M1017.416 392.562l-75.249 121.093c-5.965 9.601-7.972 21.193-5.612 32.277l29.875 139.89c4.659 21.801-7.777 43.622-28.718 50.437l-134.395 43.708c-10.655 3.467-19.543 11.030-24.755 21.063l-65.782 126.629c-10.25 19.741-33.603 28.356-53.965 19.926l-130.668-54.132c-10.353-4.279-21.957-4.279-32.311 0l-130.645 54.122c-20.364 8.43-43.719-0.185-53.976-19.926l-65.782-126.617c-5.214-10.033-14.103-17.596-24.755-21.063l-134.394-43.708c-20.952-6.815-33.377-28.637-28.719-50.437l29.862-139.89c2.372-11.084 0.353-22.678-5.609-32.277l-75.238-121.095c-11.731-18.872-7.404-43.684 9.979-57.359l111.542-87.69c8.846-6.953 14.647-17.142 16.165-28.385l19.114-141.809c2.97-22.103 22.020-38.303 43.987-37.437l141.030 5.54c11.175 0.44 22.073-3.589 30.375-11.203l104.511-96.174c16.293-14.981 41.156-14.981 57.438 0l104.525 96.174c8.279 7.624 19.185 11.643 30.372 11.203l141.020-5.54c21.985-0.865 41.016 15.345 43.996 37.437l19.113 141.809c1.521 11.244 7.322 21.432 16.159 28.385l111.539 87.69c17.382 13.676 21.699 38.487 9.969 57.359z" />
<glyph unicode="&#xe916;" glyph-name="content" d="M102.4 694.857c0 28.277 22.923 51.2 51.2 51.2h716.8c28.278 0 51.2-22.923 51.2-51.2s-22.922-51.2-51.2-51.2h-716.8c-28.277 0-51.2 22.923-51.2 51.2zM204.8 899.657c0 28.277 22.923 51.2 51.2 51.2h512c28.278 0 51.2-22.923 51.2-51.2s-22.922-51.2-51.2-51.2h-512c-28.277 0-51.2 22.923-51.2 51.2zM102.4 541.257h819.2c56.55 0 102.4-45.85 102.4-102.4v-409.6c0-56.55-45.85-102.4-102.4-102.4h-819.2c-56.55 0-102.4 45.85-102.4 102.4v409.6c0 56.55 45.85 102.4 102.4 102.4zM409.6 336.457c0 28.273-22.925 51.2-51.2 51.2s-51.2-22.927-51.2-51.2v-102.4c0-28.273 22.925-51.2 51.2-51.2h307.2c28.273 0 51.2 22.927 51.2 51.2v102.4c0 28.273-22.927 51.2-51.2 51.2s-51.2-22.927-51.2-51.2v-51.2h-204.8v51.2z" />
<glyph unicode="&#xe919;" glyph-name="groups" d="M409.6 438.857c-56.55 0-102.4 45.85-102.4 102.4h-204.8v-307.2h204.8c0 56.55 45.85 102.4 102.4 102.4h512c56.55 0 102.4-45.85 102.4-102.4v-102.4c0-56.55-45.85-102.4-102.4-102.4h-512c-56.55 0-102.4 45.85-102.4 102.4h-204.8c-56.55 0-102.4 45.85-102.4 102.4v563.2c0 28.275 22.925 51.2 51.2 51.2s51.2-22.925 51.2-51.2v-153.6h204.8c0 56.55 45.85 102.4 102.4 102.4h512c56.55 0 102.4-45.85 102.4-102.4v-102.4c0-56.55-45.85-102.4-102.4-102.4h-512z" />
<glyph unicode="&#xe91a;" glyph-name="system-journals" horiz-adv-x="922" d="M409.6 694.857c0 28.275 22.925 51.2 51.2 51.2h153.6c28.273 0 51.2-22.925 51.2-51.2s-22.927-51.2-51.2-51.2h-153.6c-28.275 0-51.2 22.925-51.2 51.2zM409.6 490.057c0 28.275 22.925 51.2 51.2 51.2h153.6c28.273 0 51.2-22.925 51.2-51.2s-22.927-51.2-51.2-51.2h-153.6c-28.275 0-51.2 22.925-51.2 51.2zM153.6 848.457c0 56.55 45.85 102.4 102.4 102.4h563.2c56.55 0 102.4-45.85 102.4-102.4v-665.6c0-141.373-114.611-256-256-256h-435.2c-102.4 0-230.4 128.026-230.4 256 0 69.151 29.887 108.426 57.375 129.9 26.787 20.951 62.225 23.7 96.225 23.7v512zM819.2 848.457h-563.2v-512c0 0 221.975-0.102 358.4 0 30.828 0.026 76.8 0 102.4-51.2s25.6-204.8-51.2-179.2c-48.323 16.102-45.972 52.475-43.96 83.625 1.188 18.35 2.248 34.877-7.24 44.375-25.6 25.6-102.4 11.474-102.4-76.8s76.8-128 153.6-128c76.8 0 153.6 68.777 153.6 153.6v665.6z" />
<glyph unicode="&#xe91b;" glyph-name="journal-settings" d="M921.6 182.857v163.794c0 11.284-11.791 18.77-22.292 14.633-21.391-8.433-43.786-14.868-66.959-19.072-7.521-1.362-13.148-7.808-13.148-15.447v-143.908c0-84.823-76.8-153.6-153.6-153.6s-153.6 39.726-153.6 128c0 88.274 76.8 102.4 102.4 76.8 5.888-5.898 7.711-14.5 7.967-24.55 0.159-6.149-0.271-12.851-0.722-19.825-2.012-31.15-4.362-67.523 43.955-83.625 76.8-25.6 76.8 128 51.2 179.2s-71.572 51.226-102.4 51.2h-358.4v512h178.379c5.929 0 11.304 3.427 13.993 8.711 12.027 23.634 26.599 45.757 43.355 66.009 8.77 10.601 1.587 27.68-12.171 27.68h-223.556c-56.556 0-102.4-45.85-102.4-102.4v-512c-34.006 0-69.437-2.749-96.225-23.7-27.481-21.473-57.375-60.749-57.375-129.9 0-127.974 128-256 230.4-256h435.2c141.389 0 256 114.627 256 256zM1005.937 735.882c7.255 0 15.652-5.4 16.466-12.6 2.166-19.4 2.135-38.975-0.123-58.225-0.886-7.475-7.644-13.15-14.981-12.55l-3.169 0.1c-22.625 0-43.668-13.95-52.367-34.725-9.257-22.050-3.476-47.725 14.346-63.85 5.586-5.050 6.257-13.6 1.531-19.45-12.175-15.175-26.107-28.95-41.421-40.95-5.893-4.55-14.254-3.9-19.318 1.6-15.232 16.75-42.337 23.050-63.406 14.425-9.308-3.8-17.208-9.975-23.137-17.65-7.962-10.325-12.38-23.325-11.889-36.925 0.251-7.45-5.248-13.85-12.677-14.675-6.323-0.7-12.646-1.15-18.975-1.375-3.041-0.125-6.088-0.175-9.124-0.175-9.866 0-19.712 0.575-29.491 1.7-7.475 0.875-13.010 7.425-12.564 14.975 1.357 23.975-12.544 46.3-34.637 55.55-21.1 8.85-48.507 2.6-63.821-14.35-5.084-5.6-13.624-6.275-19.487-1.55-14.956 12.050-28.605 25.825-40.499 40.975-4.618 5.85-3.917 14.25 1.556 19.3 11.745 10.75 18.191 25.725 18.483 41 0.133 7.525-1.219 15.1-4.173 22.3-8.975 21.85-30.377 35.65-52.675 35.075-7.332 0-15.98 5.35-16.788 12.6-2.16 19.375-2.135 38.975 0.113 58.2 0.891 7.4 6.671 12.825 14.792 12.575 25.011 0 46.868 13.575 55.706 34.6 9.257 22.075 3.497 47.75-14.321 63.875-5.555 5.075-6.252 13.575-1.526 19.475 12.119 15.1 26.071 28.9 41.416 40.925 5.868 4.575 14.285 3.9 19.318-1.625 15.232-16.75 42.45-22.975 63.375-14.425 21.821 8.95 35.891 30.875 35.057 54.625-0.251 7.425 5.253 13.825 12.672 14.65 19.185 2.125 38.477 2.050 57.595-0.15 7.511-0.875 13.015-7.425 12.564-14.95-1.357-23.975 12.544-46.325 34.58-55.6 21.181-8.825 48.594-2.55 63.852 14.35 5.059 5.6 13.624 6.25 19.456 1.575 14.904-11.925 28.549-25.7 40.556-40.95 2.606-3.3 3.528-7.425 2.847-11.3-0.522-2.975-2.002-5.8-4.403-8-17.485-16.050-23.235-41.5-14.316-63.325 8.735-21.3 29.553-35.075 53.007-35.075zM683.013 694.307c0-47.075 38.308-85.375 85.391-85.375 47.089 0 85.391 38.3 85.391 85.375 0 47.1-38.303 85.4-85.391 85.4-47.084 0-85.391-38.3-85.391-85.4z" />
<glyph unicode="&#xe91c;" glyph-name="repository" horiz-adv-x="922" d="M460.8 950.857c-228.986 0-460.8-76.937-460.8-223.999v-576.001c0-147.062 231.814-224 460.8-224s460.8 76.938 460.8 224v576.001c0 147.062-231.813 223.999-460.8 223.999zM460.8 54.857c-215.968 0-329.143 71.311-329.143 96v127.048c87.859-41.564 208.719-63.048 329.143-63.048 120.422 0 241.285 21.484 329.144 63.048v-127.048c0-24.689-113.178-96-329.144-96zM460.8 342.857c-215.968 0-329.143 71.311-329.143 96v127.051c87.859-41.567 208.719-63.051 329.143-63.051 120.422 0 241.285 21.484 329.144 63.051v-127.051c0-24.689-113.178-96-329.144-96z" />
<glyph unicode="&#xe91e;" glyph-name="bpmn-editor" d="M204.8 925.257c95.437 0 175.612-65.275 198.35-153.6h238.801l136.863 136.875c22.313 22.3 58.46 22.3 80.773 0l147.686-147.7c22.303-22.3 22.303-58.45 0-80.75l-147.686-147.7c-22.313-22.3-58.46-22.3-80.773 0l-136.863 136.875h-238.801c-18.55-72.1-75.375-128.825-147.537-147.25 0.263-2.075 0.388-4.2 0.388-6.35v-153.6c0-28.273-22.925-51.2-51.2-51.2s-51.2 22.927-51.2 51.2v153.6l0.062 2.625c0.062 1.25 0.175 2.5 0.325 3.725-88.538 22.6-153.988 102.875-153.988 198.45 0 113.1 91.687 204.8 204.8 204.8zM204.8 618.057c56.55 0 102.4 45.85 102.4 102.4s-45.85 102.4-102.4 102.4c-56.55 0-102.4-45.85-102.4-102.4s45.85-102.4 102.4-102.4zM952.94 225.932c25.861 11.448 37.56 41.677 26.122 67.528l-62.111 140.498c-11.438 25.85-41.677 37.55-67.538 26.125l-32.225-14.25c-25.861-11.45-37.56-41.673-26.127-67.55l62.116-140.477c11.438-25.846 41.672-37.55 67.538-26.122l32.225 14.249zM278.987 207.858c-7.987-3.553-14.937-9.052-20.187-16.026l-94.825-125.901c-24.125-32.026-3.75-78.075 36.163-81.797l156.937-14.577c8.7-0.799 17.45 0.625 25.438 4.147l373.988 165.376c18.473 8.177 26.824 29.778 18.662 48.251l-68.024 153.851c-11.438 25.851-41.677 37.55-67.528 26.122l-360.624-159.447z" />
<glyph unicode="&#xe91f;" glyph-name="users" d="M142.222 662.239c0-115.763 85.618-203.093 199.111-203.093s199.113 87.33 199.113 203.093c0 115.763-85.62 203.094-199.113 203.094s-199.111-87.33-199.111-203.094zM631.465-5.067c28.278 0 51.2 22.922 51.2 51.2v38.856c0 17.5-1.526 34.642-4.449 51.292-0.394 2.253-0.819 4.5-1.265 6.738-0.968 4.844-2.053 9.641-3.256 14.392-8.694 34.386-23.424 66.319-42.972 94.556-51.543 74.45-136.551 123.156-232.5 123.156h-113.778c-156.843 0-284.445-130.156-284.445-290.135v-38.856c0-28.278 22.923-51.2 51.2-51.2h580.265zM796.447 46.133c0-28.278 22.922-51.2 51.2-51.2h125.153c28.278 0 51.2 22.922 51.2 51.2v19.42c0 114.698-95.703 208.010-213.335 208.010-27.269 0-45.174-29.117-36.342-54.917 14.331-41.871 22.124-86.845 22.124-133.652v-38.861zM768 343.093c78.546 0 142.223 64.947 142.223 145.066s-63.677 145.067-142.223 145.067c-78.546 0-142.223-64.949-142.223-145.067s63.677-145.066 142.223-145.066z" />
<glyph unicode="&#xe920;" glyph-name="types" d="M0 848.457v-256c0-56.554 45.846-102.4 102.4-102.4h256c56.554 0 102.4 45.846 102.4 102.4v256c0 56.554-45.846 102.4-102.4 102.4h-256c-56.554 0-102.4-45.846-102.4-102.4zM102.4 848.457h256v-256h-256v256zM665.6 950.857c-56.556 0-102.4-45.846-102.4-102.4v-256c0-56.554 45.844-102.4 102.4-102.4h256c56.556 0 102.4 45.846 102.4 102.4v256c0 56.554-45.844 102.4-102.4 102.4h-256zM0 285.257c0 56.556 45.846 102.4 102.4 102.4h256c56.554 0 102.4-45.844 102.4-102.4v-256c0-56.556-45.846-102.4-102.4-102.4h-256c-56.554 0-102.4 45.844-102.4 102.4v256zM563.2 285.257v-256c0-56.556 45.844-102.4 102.4-102.4h256c56.556 0 102.4 45.844 102.4 102.4v256c0 56.556-45.844 102.4-102.4 102.4h-256c-56.556 0-102.4-45.844-102.4-102.4zM665.6 285.257h256v-256h-256v256z" />
<glyph unicode="&#xe921;" glyph-name="templates" horiz-adv-x="973" d="M256 848.457v-102.4h-153.6c-56.55 0-102.4-45.85-102.4-102.4v-614.4c0-56.55 45.85-102.4 102.4-102.4h512c56.55 0 102.4 45.85 102.4 102.4v102.4h153.6c56.55 0 102.4 45.85 102.4 102.4v614.4c0 56.55-45.85 102.4-102.4 102.4h-512c-56.55 0-102.4-45.85-102.4-102.4zM409.6 746.057v51.2h409.6v-512h-102.4v358.4c0 56.55-45.85 102.4-102.4 102.4h-204.8zM153.6 80.457v512h409.6v-512h-409.6z" />
<glyph unicode="&#xe922;" glyph-name="tools" d="M903.634 629.755c48.963 48.975 129.705 26.317 119.48-42.157-9.713-65.091-39.613-127.751-89.728-177.879-86.712-86.697-210.913-112.886-320.369-78.751-3.625-4.588-7.521-9.047-11.756-13.281l-347.24-347.238c-58.111-58.122-152.327-58.122-210.438 0-58.111 58.097-58.111 152.315 0 210.437l347.239 347.21c4.236 4.261 8.697 8.146 13.284 11.78-34.137 109.429-7.932 233.671 78.764 320.367 50.117 50.103 112.776 80.004 177.866 89.729 68.49 10.226 91.136-70.53 42.173-119.48l-6.984-6.967c-33.935-33.962-45.292-84.415-29.133-129.631 16.691-46.744 53.484-83.538 100.239-100.256 45.22-16.141 95.683-4.787 129.623 29.149l6.979 6.968zM179.657 29.523c42.521 0 76.997 34.463 76.997 77 0 42.532-34.476 76.995-76.997 76.995s-76.997-34.463-76.997-76.995c0-42.537 34.476-77 76.997-77z" />
<glyph unicode="&#xf055;" glyph-name="finances-1" horiz-adv-x="878" d="M694.857 402.286v73.143c0 20-16.571 36.571-36.571 36.571h-146.286v146.286c0 20-16.571 36.571-36.571 36.571h-73.143c-20 0-36.571-16.571-36.571-36.571v-146.286h-146.286c-20 0-36.571-16.571-36.571-36.571v-73.143c0-20 16.571-36.571 36.571-36.571h146.286v-146.286c0-20 16.571-36.571 36.571-36.571h73.143c20 0 36.571 16.571 36.571 36.571v146.286h146.286c20 0 36.571 16.571 36.571 36.571zM877.714 438.857c0-242.286-196.571-438.857-438.857-438.857s-438.857 196.571-438.857 438.857 196.571 438.857 438.857 438.857 438.857-196.571 438.857-438.857z" />
<glyph unicode="&#xf058;" glyph-name="completed-tasks" horiz-adv-x="878" d="M733.714 531.428c0 9.714-3.429 19.429-10.286 26.286l-52 51.429c-6.857 6.857-16 10.857-25.714 10.857s-18.857-4-25.714-10.857l-233.143-232.571-129.143 129.143c-6.857 6.857-16 10.857-25.714 10.857s-18.857-4-25.714-10.857l-52-51.429c-6.857-6.857-10.286-16.571-10.286-26.286s3.429-18.857 10.286-25.714l206.857-206.857c6.857-6.857 16.571-10.857 25.714-10.857 9.714 0 19.429 4 26.286 10.857l310.286 310.286c6.857 6.857 10.286 16 10.286 25.714zM877.714 438.857c0-242.286-196.571-438.857-438.857-438.857s-438.857 196.571-438.857 438.857 196.571 438.857 438.857 438.857 438.857-196.571 438.857-438.857z" />
<glyph unicode="&#xf079;" glyph-name="shared-documents-1" horiz-adv-x="1097" d="M731.429 91.428c0-9.714-8.571-18.286-18.286-18.286h-548.571c-21.143 0-18.286 22.286-18.286 36.571v329.143h-109.714c-20 0-36.571 16.571-36.571 36.571 0 8.571 2.857 17.143 8.571 23.429l182.857 219.429c6.857 8 17.143 12.571 28 12.571s21.143-4.571 28-12.571l182.857-219.429c5.714-6.286 8.571-14.857 8.571-23.429 0-20-16.571-36.571-36.571-36.571h-109.714v-219.429h329.143c5.143 0 10.857-2.286 14.286-6.286l91.429-109.714c2.286-3.429 4-8 4-12zM1097.143 329.143c0-8.571-2.857-17.143-8.571-23.429l-182.857-219.429c-6.857-8-17.143-13.143-28-13.143s-21.143 5.143-28 13.143l-182.857 219.429c-5.714 6.286-8.571 14.857-8.571 23.429 0 20 16.571 36.571 36.571 36.571h109.714v219.429h-329.143c-5.143 0-10.857 2.286-14.286 6.857l-91.429 109.714c-2.286 2.857-4 7.429-4 11.429 0 9.714 8.571 18.286 18.286 18.286h548.571c21.143 0 18.286-22.286 18.286-36.571v-329.143h109.714c20 0 36.571-16.571 36.571-36.571z" />
<glyph unicode="&#xf09d;" glyph-name="finances" horiz-adv-x="1097" d="M1005.714 877.714c50.286 0 91.429-41.143 91.429-91.429v-694.857c0-50.286-41.143-91.429-91.429-91.429h-914.286c-50.286 0-91.429 41.143-91.429 91.429v694.857c0 50.286 41.143 91.429 91.429 91.429h914.286zM91.429 804.571c-9.714 0-18.286-8.571-18.286-18.286v-128h950.857v128c0 9.714-8.571 18.286-18.286 18.286h-914.286zM1005.714 73.143c9.714 0 18.286 8.571 18.286 18.286v347.429h-950.857v-347.429c0-9.714 8.571-18.286 18.286-18.286h914.286zM146.286 146.286v73.143h146.286v-73.143h-146.286zM365.714 146.286v73.143h219.429v-73.143h-219.429z" />
<glyph unicode="&#xf0ae;" glyph-name="tax-report" d="M585.143 146.286h365.714v73.143h-365.714v-73.143zM365.714 438.857h585.143v73.143h-585.143v-73.143zM731.429 731.428h219.429v73.143h-219.429v-73.143zM1024 256v-146.286c0-20-16.571-36.571-36.571-36.571h-950.857c-20 0-36.571 16.571-36.571 36.571v146.286c0 20 16.571 36.571 36.571 36.571h950.857c20 0 36.571-16.571 36.571-36.571zM1024 548.571v-146.286c0-20-16.571-36.571-36.571-36.571h-950.857c-20 0-36.571 16.571-36.571 36.571v146.286c0 20 16.571 36.571 36.571 36.571h950.857c20 0 36.571-16.571 36.571-36.571zM1024 841.143v-146.286c0-20-16.571-36.571-36.571-36.571h-950.857c-20 0-36.571 16.571-36.571 36.571v146.286c0 20 16.571 36.571 36.571 36.571h950.857c20 0 36.571-16.571 36.571-36.571z" />
<glyph unicode="&#xf0c0;" glyph-name="hr-department" horiz-adv-x="1097" d="M338.857 438.857c-59.429-1.714-113.143-27.429-151.429-73.143h-76.571c-57.143 0-110.857 27.429-110.857 90.857 0 46.286-1.714 201.714 70.857 201.714 12 0 71.429-48.571 148.571-48.571 26.286 0 51.429 4.571 76 13.143-1.714-12.571-2.857-25.143-2.857-37.714 0-52 16.571-103.429 46.286-146.286zM950.857 74.857c0-92.571-61.143-148-152.571-148h-499.429c-91.429 0-152.571 55.429-152.571 148 0 129.143 30.286 327.429 197.714 327.429 19.429 0 90.286-79.429 204.571-79.429s185.143 79.429 204.571 79.429c167.429 0 197.714-198.286 197.714-327.429zM365.714 804.571c0-80.571-65.714-146.286-146.286-146.286s-146.286 65.714-146.286 146.286 65.714 146.286 146.286 146.286 146.286-65.714 146.286-146.286zM768 585.143c0-121.143-98.286-219.429-219.429-219.429s-219.429 98.286-219.429 219.429 98.286 219.429 219.429 219.429 219.429-98.286 219.429-219.429zM1097.143 456.571c0-63.429-53.714-90.857-110.857-90.857h-76.571c-38.286 45.714-92 71.429-151.429 73.143 29.714 42.857 46.286 94.286 46.286 146.286 0 12.571-1.143 25.143-2.857 37.714 24.571-8.571 49.714-13.143 76-13.143 77.143 0 136.571 48.571 148.571 48.571 72.571 0 70.857-155.429 70.857-201.714zM1024 804.571c0-80.571-65.714-146.286-146.286-146.286s-146.286 65.714-146.286 146.286 65.714 146.286 146.286 146.286 146.286-65.714 146.286-146.286z" />
<glyph unicode="&#xf0db;" glyph-name="workflows" horiz-adv-x="951" d="M91.429 73.143h347.429v658.286h-365.714v-640c0-9.714 8.571-18.286 18.286-18.286zM877.714 91.428v640h-365.714v-658.286h347.429c9.714 0 18.286 8.571 18.286 18.286zM950.857 786.286v-694.857c0-50.286-41.143-91.429-91.429-91.429h-768c-50.286 0-91.429 41.143-91.429 91.429v694.857c0 50.286 41.143 91.429 91.429 91.429h768c50.286 0 91.429-41.143 91.429-91.429z" />
<glyph unicode="&#xf0fe;" glyph-name="new-tasks-1" horiz-adv-x="878" d="M731.429 402.286v73.143c0 20-16.571 36.571-36.571 36.571h-182.857v182.857c0 20-16.571 36.571-36.571 36.571h-73.143c-20 0-36.571-16.571-36.571-36.571v-182.857h-182.857c-20 0-36.571-16.571-36.571-36.571v-73.143c0-20 16.571-36.571 36.571-36.571h182.857v-182.857c0-20 16.571-36.571 36.571-36.571h73.143c20 0 36.571 16.571 36.571 36.571v182.857h182.857c20 0 36.571 16.571 36.571 36.571zM877.714 713.143v-548.571c0-90.857-73.714-164.571-164.571-164.571h-548.571c-90.857 0-164.571 73.714-164.571 164.571v548.571c0 90.857 73.714 164.571 164.571 164.571h548.571c90.857 0 164.571-73.714 164.571-164.571z" />
<glyph unicode="&#xf15b;" glyph-name="material" horiz-adv-x="878" d="M585.143 658.286v269.714c8-5.143 14.857-10.286 20.571-16l233.143-233.143c5.714-5.714 10.857-12.571 16-20.571h-269.714zM512 640c0-30.286 24.571-54.857 54.857-54.857h310.857v-603.429c0-30.286-24.571-54.857-54.857-54.857h-768c-30.286 0-54.857 24.571-54.857 54.857v914.286c0 30.286 24.571 54.857 54.857 54.857h457.143v-310.857z" />
<glyph unicode="&#xf187;" glyph-name="power-attorney-1" d="M621.714 475.428c0 20-16.571 36.571-36.571 36.571h-146.286c-20 0-36.571-16.571-36.571-36.571s16.571-36.571 36.571-36.571h146.286c20 0 36.571 16.571 36.571 36.571zM950.857 585.143v-548.571c0-20-16.571-36.571-36.571-36.571h-804.571c-20 0-36.571 16.571-36.571 36.571v548.571c0 20 16.571 36.571 36.571 36.571h804.571c20 0 36.571-16.571 36.571-36.571zM987.429 841.143v-146.286c0-20-16.571-36.571-36.571-36.571h-877.714c-20 0-36.571 16.571-36.571 36.571v146.286c0 20 16.571 36.571 36.571 36.571h877.714c20 0 36.571-16.571 36.571-36.571z" />
<glyph unicode="&#xf19c;" glyph-name="power-attorney" horiz-adv-x="1097" d="M548.571 950.857l548.571-219.429v-73.143h-73.143c0-20-17.714-36.571-39.429-36.571h-872c-21.714 0-39.429 16.571-39.429 36.571h-73.143v73.143zM146.286 585.143h146.286v-438.857h73.143v438.857h146.286v-438.857h73.143v438.857h146.286v-438.857h73.143v438.857h146.286v-438.857h33.714c21.714 0 39.429-16.571 39.429-36.571v-36.571h-950.857v36.571c0 20 17.714 36.571 39.429 36.571h33.714v438.857zM1057.714 36.571c21.714 0 39.429-16.571 39.429-36.571v-73.143h-1097.143v73.143c0 20 17.714 36.571 39.429 36.571h1018.286z" />
<glyph unicode="&#xf1ea;" glyph-name="ord-1" horiz-adv-x="1170" d="M585.143 658.286h-219.429v-219.429h219.429v219.429zM658.286 292.571v-73.143h-365.714v73.143h365.714zM658.286 731.428v-365.714h-365.714v365.714h365.714zM1024 292.571v-73.143h-292.571v73.143h292.571zM1024 438.857v-73.143h-292.571v73.143h292.571zM1024 585.143v-73.143h-292.571v73.143h292.571zM1024 731.428v-73.143h-292.571v73.143h292.571zM146.286 182.857v548.571h-73.143v-548.571c0-20 16.571-36.571 36.571-36.571s36.571 16.571 36.571 36.571zM1097.143 182.857v621.714h-877.714v-621.714c0-12.571-2.286-25.143-6.286-36.571h847.429c20 0 36.571 16.571 36.571 36.571zM1170.286 877.714v-694.857c0-60.571-49.143-109.714-109.714-109.714h-950.857c-60.571 0-109.714 49.143-109.714 109.714v621.714h146.286v73.143h1024z" />
<glyph unicode="&#x1f5bc;" glyph-name="app" d="M768 438.857c0-141.384-114.616-256-256-256s-256 114.616-256 256c0 141.385 114.615 256 256 256s256-114.615 256-256zM102.4 950.857c-56.554 0-102.4-45.846-102.4-102.4v-819.2c0-56.556 45.846-102.4 102.4-102.4h819.2c56.556 0 102.4 45.844 102.4 102.4v819.2c0 56.554-45.844 102.4-102.4 102.4h-819.2zM870.4 438.857c0-197.939-160.461-358.4-358.4-358.4s-358.4 160.461-358.4 358.4c0 197.939 160.461 358.4 358.4 358.4s358.4-160.461 358.4-358.4z" />
<glyph unicode="&#x1f5ca;" glyph-name="files" horiz-adv-x="973" d="M963.692 694.657c5.944-13.15 9.108-27.525 9.108-42.225v-367.175c0-56.55-45.844-102.4-102.4-102.4-28.278 0-51.2 22.922-51.2 51.2v162.376c0 54.324-21.576 106.424-59.986 144.824l-196.014 196.025c-38.405 38.4-90.5 59.975-144.813 59.975h-111.187c-28.277 0-51.2 22.923-51.2 51.2 0 56.55 45.844 102.4 102.4 102.4h315.986c27.156 0 53.202-10.8 72.407-30l196.014-196c8.812-8.8 15.852-19.050 20.884-30.2zM711.281 429.605c3.62-10.573 5.519-21.775 5.519-33.172v-367.176c0-56.55-45.844-102.4-102.4-102.4h-512c-44.9 0-83.050 28.902-96.869 69.1-3.587 10.45-5.531 21.652-5.531 33.3v563.2c0 56.55 45.844 102.4 102.4 102.4h315.987c27.156 0 53.2-10.8 72.407-30l196.013-196c11.151-11.15 19.461-24.6 24.474-39.252z" />
</font>
</defs>
</svg>
